%TF.GenerationSoftware,KiCad,Pcbnew,7.0.2*%
%TF.CreationDate,2023-05-23T12:29:29+08:00*%
%TF.ProjectId,remote_controller,72656d6f-7465-45f6-936f-6e74726f6c6c,rev?*%
%TF.SameCoordinates,PX715d7c0PY5feca40*%
%TF.FileFunction,Profile,NP*%
%FSLAX46Y46*%
G04 Gerber Fmt 4.6, Leading zero omitted, Abs format (unit mm)*
G04 Created by KiCad (PCBNEW 7.0.2) date 2023-05-23 12:29:29*
%MOMM*%
%LPD*%
G01*
G04 APERTURE LIST*
%TA.AperFunction,Profile*%
%ADD10C,0.100000*%
%TD*%
%TA.AperFunction,Profile*%
%ADD11C,0.120000*%
%TD*%
G04 APERTURE END LIST*
D10*
X64820000Y68894000D02*
X65820000Y68894000D01*
X65820000Y62884000D01*
X64820000Y62884000D01*
X64820000Y68894000D01*
X33749625Y51380441D02*
G75*
G03*
X33749625Y51380441I-1500000J0D01*
G01*
X99910375Y66940441D02*
G75*
G03*
X99910375Y66940441I-1500000J0D01*
G01*
X64820000Y61849000D02*
X65820000Y61849000D01*
X65820000Y55839000D01*
X64820000Y55839000D01*
X64820000Y61849000D01*
X72921330Y48854000D02*
X78931330Y48854000D01*
X78931330Y47854000D01*
X72921330Y47854000D01*
X72921330Y48854000D01*
X101128000Y48254000D02*
X101118000Y69644000D01*
X64808000Y55194000D02*
X65808000Y55194000D01*
X65808000Y49184000D01*
X64808000Y49184000D01*
X64808000Y55194000D01*
X20330000Y48260000D02*
X0Y21844000D01*
X110330000Y48260000D02*
X130556000Y21844000D01*
X33749625Y66940441D02*
G75*
G03*
X33749625Y66940441I-1500000J0D01*
G01*
X109474000Y-33274000D02*
X21082000Y-33274000D01*
X58760220Y48854000D02*
X64770220Y48854000D01*
X64770220Y47854000D01*
X58760220Y47854000D01*
X58760220Y48854000D01*
X29532000Y48266000D02*
X20330000Y48260000D01*
X115860000Y37224000D02*
G75*
G03*
X115860000Y37224000I-1500000J0D01*
G01*
X101118000Y69644000D02*
X29522000Y69656000D01*
X0Y21844000D02*
X0Y0D01*
X130556000Y0D02*
X109474000Y-33274000D01*
X51679665Y48854000D02*
X57689665Y48854000D01*
X57689665Y47854000D01*
X51679665Y47854000D01*
X51679665Y48854000D01*
X63759625Y66940441D02*
G75*
G03*
X63759625Y66940441I-1500000J0D01*
G01*
X29532000Y48266000D02*
X29522000Y69656000D01*
X63759625Y51380441D02*
G75*
G03*
X63759625Y51380441I-1500000J0D01*
G01*
X69900375Y66940441D02*
G75*
G03*
X69900375Y66940441I-1500000J0D01*
G01*
X130556000Y21844000D02*
X130556000Y0D01*
X94163000Y48854000D02*
X100173000Y48854000D01*
X100173000Y47854000D01*
X94163000Y47854000D01*
X94163000Y48854000D01*
X87082440Y48854000D02*
X93092440Y48854000D01*
X93092440Y47854000D01*
X87082440Y47854000D01*
X87082440Y48854000D01*
X110330000Y48260000D02*
X101128000Y48254000D01*
X0Y0D02*
X21082000Y-33274000D01*
X30438000Y48854000D02*
X36448000Y48854000D01*
X36448000Y47854000D01*
X30438000Y47854000D01*
X30438000Y48854000D01*
X17800000Y37224000D02*
G75*
G03*
X17800000Y37224000I-1500000J0D01*
G01*
X44599110Y48854000D02*
X50609110Y48854000D01*
X50609110Y47854000D01*
X44599110Y47854000D01*
X44599110Y48854000D01*
X99910375Y51380441D02*
G75*
G03*
X99910375Y51380441I-1500000J0D01*
G01*
X115860000Y-16746000D02*
G75*
G03*
X115860000Y-16746000I-1500000J0D01*
G01*
X37518555Y48854000D02*
X43528555Y48854000D01*
X43528555Y47854000D01*
X37518555Y47854000D01*
X37518555Y48854000D01*
X80001885Y48854000D02*
X86011885Y48854000D01*
X86011885Y47854000D01*
X80001885Y47854000D01*
X80001885Y48854000D01*
X65840775Y48854000D02*
X71850775Y48854000D01*
X71850775Y47854000D01*
X65840775Y47854000D01*
X65840775Y48854000D01*
X17800000Y-16746000D02*
G75*
G03*
X17800000Y-16746000I-1500000J0D01*
G01*
X69900375Y51380441D02*
G75*
G03*
X69900375Y51380441I-1500000J0D01*
G01*
D11*
%TO.C,U2*%
X91071700Y35638000D02*
G75*
G03*
X91071700Y35638000I-1000000J0D01*
G01*
X69071700Y35638000D02*
G75*
G03*
X69071700Y35638000I-1000000J0D01*
G01*
X91071700Y13638000D02*
G75*
G03*
X91071700Y13638000I-1000000J0D01*
G01*
X69071700Y13638000D02*
G75*
G03*
X69071700Y13638000I-1000000J0D01*
G01*
%TO.C,U1*%
X63588300Y35638000D02*
G75*
G03*
X63588300Y35638000I-1000000J0D01*
G01*
X41588300Y35638000D02*
G75*
G03*
X41588300Y35638000I-1000000J0D01*
G01*
X63588300Y13638000D02*
G75*
G03*
X63588300Y13638000I-1000000J0D01*
G01*
X41588300Y13638000D02*
G75*
G03*
X41588300Y13638000I-1000000J0D01*
G01*
D10*
%TO.C,J3*%
X93403660Y42062400D02*
G75*
G03*
X93403660Y42062400I-325000J0D01*
G01*
X97403660Y42062400D02*
G75*
G03*
X97403660Y42062400I-325000J0D01*
G01*
%TO.C,BT1*%
X94811000Y8673150D02*
G75*
G03*
X94811000Y8673150I-1750000J0D01*
G01*
X39311000Y8673150D02*
G75*
G03*
X39311000Y8673150I-1750000J0D01*
G01*
X94811000Y-7326850D02*
G75*
G03*
X94811000Y-7326850I-1750000J0D01*
G01*
X39311000Y-7326850D02*
G75*
G03*
X39311000Y-7326850I-1750000J0D01*
G01*
%TD*%
M02*
