M48
; DRILL file {KiCad 7.0.2} date Tue May 23 12:29:33 2023
; FORMAT={-:-/ absolute / metric / decimal}
; #@! TF.CreationDate,2023-05-23T12:29:33+08:00
; #@! TF.GenerationSoftware,Kicad,Pcbnew,7.0.2
; #@! TF.FileFunction,Plated,1,2,PTH
FMAT,2
METRIC
; #@! TA.AperFunction,Plated,PTH,ViaDrill
T1C0.300
; #@! TA.AperFunction,Plated,PTH,ComponentDrill
T2C0.450
; #@! TA.AperFunction,Plated,PTH,ComponentDrill
T3C0.500
; #@! TA.AperFunction,Plated,PTH,ComponentDrill
T4C0.762
; #@! TA.AperFunction,Plated,PTH,ComponentDrill
T5C1.000
; #@! TA.AperFunction,Plated,PTH,ComponentDrill
T6C1.200
; #@! TA.AperFunction,Plated,PTH,ComponentDrill
T7C1.400
; #@! TA.AperFunction,Plated,PTH,ComponentDrill
T8C3.000
%
G90
G05
T1
X20.388Y-18.566
X27.288Y34.424
X27.318Y22.774
X27.903Y34.424
X27.905Y35.687
X27.905Y24.034
X27.933Y22.774
X28.518Y34.424
X28.548Y22.774
X30.387Y31.646
X31.508Y43.304
X31.808Y19.704
X31.888Y32.814
X32.038Y10.174
X32.208Y20.284
X32.594Y20.86
X33.02Y29.21
X33.02Y27.844
X33.055Y25.304
X33.055Y24.034
X33.068Y35.684
X33.638Y26.554
X35.848Y18.604
X37.118Y44.434
X37.118Y43.877
X37.118Y43.319
X37.118Y42.762
X37.118Y42.205
X37.118Y41.648
X37.118Y41.09
X37.118Y40.533
X37.118Y39.976
X37.118Y39.419
X37.118Y38.861
X37.118Y38.304
X37.118Y31.564
X37.118Y30.995
X37.118Y30.426
X37.118Y29.857
X37.118Y29.288
X37.118Y28.719
X37.118Y28.149
X37.118Y27.58
X37.118Y27.011
X37.118Y26.442
X37.118Y25.873
X37.118Y25.304
X37.118Y22.764
X37.118Y22.204
X37.118Y21.644
X37.118Y21.084
X37.118Y20.524
X37.118Y19.964
X37.118Y19.404
X42.024Y19.355
X42.075Y25.502
X42.125Y22.606
X42.318Y-8.736
X42.581Y19.355
X42.631Y25.502
X42.682Y22.606
X42.906Y-8.736
X43.137Y19.355
X43.188Y25.502
X43.239Y22.606
X43.495Y-8.736
X43.694Y19.355
X43.745Y25.502
X43.796Y22.606
X44.083Y-8.736
X44.251Y19.355
X44.258Y8.824
X44.302Y25.502
X44.352Y22.606
X44.671Y-8.736
X44.808Y19.355
X44.858Y25.502
X44.909Y22.606
X44.993Y8.129
X45.26Y-8.736
X45.364Y19.355
X45.415Y25.502
X45.466Y22.606
X45.466Y-14.783
X45.466Y-15.34
X45.466Y-15.896
X45.466Y-16.453
X45.466Y-17.01
X45.466Y-17.567
X45.466Y-18.123
X45.466Y-19.66
X45.466Y-20.216
X45.466Y-20.773
X45.466Y-21.33
X45.466Y-21.887
X45.466Y-22.443
X45.466Y-23.0
X45.628Y7.494
X45.848Y-8.736
X46.358Y6.774
X46.55Y-0.558
X46.748Y43.485
X47.198Y-0.558
X47.305Y43.485
X47.798Y-0.558
X47.862Y43.485
X48.418Y43.485
X48.975Y43.485
X49.532Y43.485
X50.089Y43.485
X51.105Y-7.061
X51.628Y6.664
X52.204Y6.664
X52.625Y-7.112
X52.668Y22.927
X52.668Y22.369
X52.668Y21.812
X52.668Y21.255
X52.668Y20.698
X52.668Y20.14
X52.668Y19.583
X52.692Y39.167
X52.698Y29.631
X52.698Y29.074
X52.698Y28.517
X52.698Y27.959
X52.698Y27.402
X52.698Y26.845
X52.698Y26.288
X52.698Y25.73
X52.78Y6.664
X53.249Y39.167
X53.355Y6.664
X53.578Y28.554
X53.805Y39.167
X53.931Y6.664
X53.97Y35.344
X54.271Y11.633
X54.322Y13.665
X54.362Y39.167
X54.418Y22.867
X54.418Y22.309
X54.418Y21.752
X54.418Y21.195
X54.418Y20.638
X54.428Y29.627
X54.428Y29.069
X54.428Y28.512
X54.428Y27.955
X54.428Y27.398
X54.428Y26.84
X54.428Y26.283
X54.428Y25.726
X54.507Y6.664
X54.688Y19.864
X54.847Y11.633
X54.898Y13.665
X54.919Y39.167
X55.083Y6.664
X55.258Y19.284
X55.423Y11.633
X55.473Y13.665
X55.476Y39.167
X55.643Y10.211
X55.648Y-0.558
X55.659Y6.664
X55.998Y11.633
X56.032Y39.167
X56.049Y13.665
X56.218Y10.211
X56.398Y4.395
X56.398Y3.819
X56.398Y3.243
X56.398Y2.667
X56.398Y2.091
X56.398Y1.516
X56.398Y0.94
X56.398Y0.364
X56.408Y6.614
X56.574Y11.633
X56.625Y13.665
X56.63Y-0.556
X56.794Y10.211
X57.059Y42.367
X57.15Y11.633
X57.201Y13.665
X57.37Y10.211
X57.615Y42.367
X57.726Y11.633
X57.777Y13.665
X57.946Y10.211
X58.172Y42.367
X58.428Y23.484
X58.522Y10.211
X58.729Y42.367
X58.758Y4.395
X58.758Y3.819
X58.758Y3.243
X58.758Y2.667
X58.758Y2.091
X58.758Y1.516
X58.758Y0.94
X58.758Y0.364
X59.097Y10.211
X59.286Y42.367
X59.439Y4.834
X59.651Y21.031
X59.842Y42.367
X60.015Y4.834
X60.208Y21.031
X60.328Y39.894
X60.356Y6.644
X60.399Y42.367
X60.591Y4.834
X60.765Y21.031
X60.885Y39.894
X60.932Y6.644
X61.166Y4.834
X61.322Y21.031
X61.442Y39.894
X61.508Y6.644
X61.603Y12.09
X61.742Y4.834
X61.878Y21.031
X61.998Y39.894
X62.084Y6.644
X62.179Y12.09
X62.318Y4.834
X62.435Y21.031
X62.555Y39.894
X62.66Y6.644
X62.755Y12.09
X62.894Y4.834
X62.908Y7.654
X62.992Y21.031
X63.112Y39.894
X63.235Y6.644
X63.258Y-9.516
X63.331Y12.09
X63.47Y4.834
X63.669Y39.894
X63.758Y-10.016
X63.939Y6.664
X64.045Y4.834
X64.225Y39.894
X64.258Y-10.546
X64.338Y-8.946
X64.515Y6.664
X64.749Y4.854
X64.782Y42.012
X64.782Y39.894
X64.788Y-11.026
X65.091Y6.664
X65.325Y4.854
X65.339Y42.012
X65.339Y39.894
X65.493Y24.943
X65.598Y-11.046
X65.666Y6.664
X65.896Y42.012
X65.896Y39.894
X65.901Y4.854
X66.05Y24.943
X66.345Y14.986
X66.408Y-11.046
X66.452Y42.012
X66.452Y39.894
X66.607Y24.943
X66.812Y21.946
X67.009Y42.012
X67.009Y39.894
X67.038Y-23.066
X67.048Y-22.486
X67.164Y24.943
X67.369Y21.946
X67.566Y42.012
X67.566Y39.894
X67.72Y24.943
X67.926Y21.946
X68.123Y42.012
X68.123Y39.894
X68.277Y24.943
X68.482Y21.946
X68.68Y39.894
X68.718Y22.768
X68.834Y24.943
X69.039Y21.946
X69.048Y-15.816
X69.236Y39.894
X69.279Y5.824
X69.475Y7.714
X69.596Y21.946
X69.618Y-16.386
X69.793Y39.894
X69.855Y5.824
X70.051Y7.714
X70.104Y12.141
X70.153Y21.946
X70.35Y39.894
X70.431Y5.824
X70.608Y-16.776
X70.626Y7.714
X70.907Y39.894
X71.374Y12.192
X71.374Y-1.882
X71.463Y39.894
X72.158Y5.824
X72.354Y7.714
X72.716Y4.204
X73.128Y12.124
X73.128Y6.074
X73.292Y4.204
X73.538Y-19.186
X73.548Y-17.876
X73.548Y-20.406
X73.868Y7.724
X73.868Y4.204
X74.278Y40.894
X74.295Y39.37
X74.328Y42.434
X74.333Y45.744
X74.438Y7.154
X74.444Y4.204
X74.928Y6.714
X75.02Y4.204
X75.445Y6.364
X75.774Y39.555
X75.898Y-16.836
X76.424Y39.555
X76.962Y43.79
X77.301Y6.384
X77.451Y4.224
X77.47Y43.282
X77.728Y43.794
X77.775Y37.897
X77.876Y6.384
X77.978Y42.824
X78.026Y4.224
X78.068Y-23.846
X78.078Y-19.966
X78.078Y-21.906
X78.232Y38.303
X78.232Y37.541
X78.374Y39.555
X78.384Y43.79
X78.435Y42.367
X78.452Y6.384
X78.602Y4.224
X79.028Y6.384
X79.096Y43.79
X79.096Y42.367
X79.178Y4.224
X79.553Y42.774
X79.729Y4.224
X79.789Y6.384
X79.858Y43.79
X80.112Y43.231
X80.305Y4.224
X80.365Y6.384
X80.366Y38.252
X80.366Y37.592
X80.467Y43.79
X80.581Y24.943
X80.772Y41.25
X80.887Y-5.517
X80.924Y38.252
X80.924Y37.592
X80.941Y6.384
X81.138Y24.943
X81.338Y-21.826
X81.695Y24.943
X82.092Y6.384
X82.251Y24.943
X82.347Y41.25
X82.398Y38.354
X82.608Y4.224
X82.668Y6.384
X82.808Y24.943
X82.906Y42.723
X82.906Y41.25
X82.956Y38.354
X83.128Y-21.876
X83.184Y4.224
X83.244Y6.384
X83.365Y24.943
X83.769Y39.573
X83.769Y38.964
X83.769Y38.354
X83.922Y24.943
X83.928Y-9.186
X84.368Y45.214
X84.481Y39.573
X84.645Y24.892
X84.87Y12.243
X84.928Y35.294
X85.039Y4.244
X85.099Y6.404
X85.202Y24.892
X85.293Y39.573
X85.445Y12.243
X85.615Y4.244
X85.675Y6.404
X85.759Y24.892
X85.943Y35.294
X86.008Y9.844
X86.021Y12.243
X86.191Y4.244
X86.251Y6.404
X86.315Y24.892
X86.584Y9.844
X86.597Y12.243
X86.766Y4.244
X86.826Y6.404
X86.872Y24.892
X86.958Y35.294
X87.16Y9.844
X87.173Y12.243
X87.208Y2.384
X87.208Y0.594
X87.218Y-1.196
X87.342Y4.244
X87.402Y6.404
X87.418Y46.814
X87.418Y46.238
X87.418Y45.662
X87.418Y45.087
X87.418Y44.511
X87.418Y43.935
X87.418Y43.359
X87.418Y42.783
X87.418Y42.208
X87.418Y41.632
X87.418Y41.056
X87.418Y40.48
X87.418Y39.905
X87.418Y39.329
X87.418Y38.753
X87.418Y38.177
X87.418Y37.601
X87.418Y37.026
X87.418Y36.45
X87.418Y35.874
X87.429Y24.892
X87.735Y9.844
X87.749Y12.243
X87.918Y4.244
X87.978Y6.404
X87.986Y24.892
X88.278Y5.334
X88.311Y9.844
X88.324Y12.243
X88.579Y4.244
X88.648Y6.414
X88.709Y24.943
X88.887Y9.844
X88.978Y12.243
X89.155Y4.244
X89.224Y6.414
X89.266Y24.943
X89.463Y9.844
X89.554Y12.243
X89.558Y5.334
X89.731Y4.244
X89.8Y6.414
X89.823Y24.943
X90.039Y9.844
X90.13Y12.243
X90.306Y4.244
X90.375Y6.414
X90.379Y24.943
X90.614Y9.844
X90.638Y5.334
X90.705Y12.243
X90.882Y4.244
X90.936Y24.943
X90.951Y6.414
X91.281Y12.243
X91.458Y4.244
X91.493Y24.943
X91.527Y6.414
X91.848Y5.334
X91.857Y12.243
X92.034Y4.244
X92.05Y24.943
X92.103Y6.414
X92.433Y12.243
X92.679Y6.414
X93.009Y12.243
X93.254Y6.414
X93.584Y12.243
X93.958Y6.434
X94.465Y4.264
X94.534Y6.434
X95.041Y4.264
X95.11Y6.434
X95.616Y4.264
X95.685Y6.434
X96.138Y31.734
X96.192Y4.264
X96.261Y6.434
X96.768Y4.264
X96.837Y6.434
X97.678Y-8.0
X97.678Y-8.575
X97.678Y-9.151
X97.678Y-9.727
X97.678Y-10.303
X97.678Y-10.879
X97.678Y-11.454
X97.678Y-12.03
X97.678Y-12.606
X97.898Y-0.546
X98.247Y-14.783
X98.848Y-1.726
X99.378Y25.884
X99.818Y-0.546
X99.898Y6.444
X100.008Y-7.96
X100.008Y-8.535
X100.008Y-9.111
X100.008Y-9.687
X100.008Y-10.263
X100.008Y-10.839
X100.008Y-11.414
X100.008Y-11.99
X100.008Y-12.566
X100.474Y6.444
X101.05Y6.444
X101.398Y25.154
X101.625Y6.444
X102.201Y6.444
X102.777Y6.444
X103.353Y6.444
X103.929Y6.444
X104.388Y32.714
X104.504Y6.444
X104.538Y-3.266
X104.538Y-3.842
X104.538Y-4.418
X104.538Y-4.993
X104.538Y-5.569
X104.538Y-6.145
X104.538Y-6.721
X104.538Y-7.297
X104.538Y-7.872
X104.538Y-8.448
X104.538Y-9.024
X104.538Y-9.6
X104.538Y-10.175
X104.538Y-10.751
X104.538Y-11.327
X104.538Y-11.903
X104.538Y-12.479
X104.538Y-13.054
X104.538Y-13.63
X104.538Y-14.206
X105.098Y6.444
X105.674Y6.444
X106.25Y6.444
X106.818Y-3.286
X106.818Y-3.862
X106.818Y-4.438
X106.818Y-5.013
X106.818Y-5.589
X106.818Y-6.165
X106.818Y-6.741
X106.818Y-7.317
X106.818Y-7.892
X106.818Y-8.468
X106.818Y-9.044
X106.818Y-9.62
X106.818Y-10.195
X106.818Y-10.771
X106.818Y-11.347
X106.818Y-11.923
X106.818Y-12.499
X106.818Y-13.074
X106.818Y-13.65
X106.818Y-14.226
X106.825Y6.444
X107.401Y6.444
X111.658Y-8.146
X111.668Y-5.616
X112.358Y-5.616
X112.388Y-8.166
X113.108Y-5.646
X113.118Y-8.146
X116.618Y-5.626
X117.338Y-5.636
X117.998Y-5.626
T4
X42.229Y31.158
X42.229Y15.918
X44.769Y31.158
X44.769Y15.918
X47.309Y31.158
X47.309Y15.918
X47.778Y36.138
X49.849Y31.158
X49.849Y15.918
X50.318Y36.138
X52.389Y31.158
X52.389Y15.918
X52.858Y36.138
X54.929Y31.158
X54.929Y15.918
X55.398Y36.138
X57.469Y31.158
X57.469Y15.918
X60.009Y31.158
X60.009Y15.918
X62.549Y31.158
X62.549Y15.918
X65.089Y31.158
X65.089Y15.918
X67.629Y31.158
X67.629Y15.918
X70.169Y31.158
X70.169Y15.918
X72.709Y31.158
X72.709Y15.918
X75.249Y31.158
X75.249Y15.918
X75.262Y36.138
X77.789Y31.158
X77.789Y15.918
X77.802Y36.138
X80.329Y31.158
X80.329Y15.918
X80.342Y36.138
X82.869Y31.158
X82.869Y15.918
X82.882Y36.138
X85.409Y31.158
X85.409Y15.918
X87.949Y31.158
X87.949Y15.918
X90.489Y31.158
X90.489Y15.918
T5
X28.232Y12.865
X30.772Y12.865
X33.312Y12.865
X35.852Y12.865
X41.326Y45.21
X43.241Y64.705
X43.866Y45.21
X45.781Y64.705
X46.406Y45.21
X48.321Y64.705
X50.038Y45.161
X50.861Y64.705
X52.578Y45.161
X55.118Y45.161
X57.658Y45.161
X57.753Y-14.701
X61.316Y45.161
X62.753Y-14.701
X63.856Y45.161
X66.396Y45.161
X68.936Y45.161
X79.309Y64.652
X81.849Y64.652
X84.389Y64.652
X86.929Y64.652
T6
X2.878Y20.03
X2.878Y15.53
X9.378Y20.03
X9.378Y15.53
X12.885Y30.063
X12.885Y25.563
X12.885Y9.997
X12.885Y5.497
X19.385Y30.063
X19.385Y25.563
X19.385Y9.997
X19.385Y5.497
X22.892Y20.03
X22.892Y15.53
X29.392Y20.03
X29.392Y15.53
X31.51Y-29.208
X34.01Y-29.208
X36.51Y-29.208
X36.863Y60.777
X36.863Y54.277
X41.363Y60.777
X41.363Y54.277
X43.01Y-17.708
X43.01Y-20.208
X43.01Y-22.708
X46.459Y1.778
X46.459Y-2.722
X52.959Y1.778
X52.959Y-2.722
X53.449Y60.777
X53.449Y54.277
X57.949Y60.777
X57.949Y54.277
X62.08Y1.778
X62.08Y-2.722
X68.58Y1.778
X68.58Y-2.722
X73.014Y60.724
X73.014Y54.224
X77.514Y60.724
X77.514Y54.224
X77.701Y1.778
X77.701Y-2.722
X84.201Y1.778
X84.201Y-2.722
X89.6Y60.724
X89.6Y54.224
X94.1Y60.724
X94.1Y54.224
X94.248Y-29.208
X96.748Y-29.208
X99.248Y-29.208
X101.268Y20.03
X101.268Y15.53
X105.748Y-17.708
X105.748Y-20.208
X105.748Y-22.708
X107.768Y20.03
X107.768Y15.53
X111.356Y30.063
X111.356Y25.563
X111.356Y9.997
X111.356Y5.497
X117.856Y30.063
X117.856Y25.563
X117.856Y9.997
X117.856Y5.497
X121.282Y20.03
X121.282Y15.53
X127.782Y20.03
X127.782Y15.53
T7
X23.91Y-16.958
X23.91Y-23.458
X27.91Y-16.958
X27.91Y-23.458
X86.648Y-16.958
X86.648Y-23.458
X90.648Y-16.958
X90.648Y-23.458
T8
X28.26Y-13.458
X28.26Y-26.958
X39.76Y-13.458
X39.76Y-26.958
X90.998Y-13.458
X90.998Y-26.958
X102.498Y-13.458
X102.498Y-26.958
T2
G00X91.504Y44.596
M15
G01X91.504Y43.796
M16
G05
G00X91.504Y41.146
M15
G01X91.504Y40.346
M16
G05
G00X98.654Y44.596
M15
G01X98.654Y43.796
M16
G05
G00X98.654Y41.146
M15
G01X98.654Y40.346
M16
G05
T3
G00X100.154Y44.823
M15
G01X100.154Y44.323
M16
G05
G00X100.154Y41.023
M15
G01X100.154Y40.523
M16
G05
G00X108.794Y44.823
M15
G01X108.794Y44.323
M16
G05
G00X108.794Y41.023
M15
G01X108.794Y40.523
M16
G05
T0
M30
