%TF.GenerationSoftware,KiCad,Pcbnew,7.0.2*%
%TF.CreationDate,2023-05-23T12:29:28+08:00*%
%TF.ProjectId,remote_controller,72656d6f-7465-45f6-936f-6e74726f6c6c,rev?*%
%TF.SameCoordinates,PX715d7c0PY5feca40*%
%TF.FileFunction,Paste,Bot*%
%TF.FilePolarity,Positive*%
%FSLAX46Y46*%
G04 Gerber Fmt 4.6, Leading zero omitted, Abs format (unit mm)*
G04 Created by KiCad (PCBNEW 7.0.2) date 2023-05-23 12:29:28*
%MOMM*%
%LPD*%
G01*
G04 APERTURE LIST*
G04 Aperture macros list*
%AMRoundRect*
0 Rectangle with rounded corners*
0 $1 Rounding radius*
0 $2 $3 $4 $5 $6 $7 $8 $9 X,Y pos of 4 corners*
0 Add a 4 corners polygon primitive as box body*
4,1,4,$2,$3,$4,$5,$6,$7,$8,$9,$2,$3,0*
0 Add four circle primitives for the rounded corners*
1,1,$1+$1,$2,$3*
1,1,$1+$1,$4,$5*
1,1,$1+$1,$6,$7*
1,1,$1+$1,$8,$9*
0 Add four rect primitives between the rounded corners*
20,1,$1+$1,$2,$3,$4,$5,0*
20,1,$1+$1,$4,$5,$6,$7,0*
20,1,$1+$1,$6,$7,$8,$9,0*
20,1,$1+$1,$8,$9,$2,$3,0*%
G04 Aperture macros list end*
%ADD10RoundRect,0.218750X0.218750X0.256250X-0.218750X0.256250X-0.218750X-0.256250X0.218750X-0.256250X0*%
%ADD11R,0.400000X2.000000*%
%ADD12RoundRect,0.225000X-0.225000X-0.250000X0.225000X-0.250000X0.225000X0.250000X-0.225000X0.250000X0*%
%ADD13RoundRect,0.150000X-0.825000X-0.150000X0.825000X-0.150000X0.825000X0.150000X-0.825000X0.150000X0*%
%ADD14RoundRect,0.200000X-0.275000X0.200000X-0.275000X-0.200000X0.275000X-0.200000X0.275000X0.200000X0*%
%ADD15RoundRect,0.200000X0.275000X-0.200000X0.275000X0.200000X-0.275000X0.200000X-0.275000X-0.200000X0*%
%ADD16RoundRect,0.150000X0.587500X0.150000X-0.587500X0.150000X-0.587500X-0.150000X0.587500X-0.150000X0*%
%ADD17RoundRect,0.250000X0.550000X-1.500000X0.550000X1.500000X-0.550000X1.500000X-0.550000X-1.500000X0*%
%ADD18RoundRect,0.225000X0.225000X0.250000X-0.225000X0.250000X-0.225000X-0.250000X0.225000X-0.250000X0*%
%ADD19RoundRect,0.225000X-0.225000X-0.375000X0.225000X-0.375000X0.225000X0.375000X-0.225000X0.375000X0*%
%ADD20RoundRect,0.225000X0.250000X-0.225000X0.250000X0.225000X-0.250000X0.225000X-0.250000X-0.225000X0*%
%ADD21RoundRect,0.150000X0.150000X-0.512500X0.150000X0.512500X-0.150000X0.512500X-0.150000X-0.512500X0*%
%ADD22R,0.700000X1.500000*%
%ADD23RoundRect,0.200000X-0.200000X-0.275000X0.200000X-0.275000X0.200000X0.275000X-0.200000X0.275000X0*%
%ADD24RoundRect,0.200000X0.200000X0.275000X-0.200000X0.275000X-0.200000X-0.275000X0.200000X-0.275000X0*%
%ADD25RoundRect,0.150000X0.150000X-0.587500X0.150000X0.587500X-0.150000X0.587500X-0.150000X-0.587500X0*%
%ADD26RoundRect,0.225000X0.225000X0.375000X-0.225000X0.375000X-0.225000X-0.375000X0.225000X-0.375000X0*%
%ADD27RoundRect,0.250000X0.250000X0.475000X-0.250000X0.475000X-0.250000X-0.475000X0.250000X-0.475000X0*%
%ADD28R,7.600000X6.600000*%
%ADD29RoundRect,0.242500X-0.242500X-0.422500X0.242500X-0.422500X0.242500X0.422500X-0.242500X0.422500X0*%
G04 APERTURE END LIST*
D10*
%TO.C,D7*%
X117682060Y-9874850D03*
X116107060Y-9874850D03*
%TD*%
D11*
%TO.C,J3*%
X93778660Y41171200D03*
X94428660Y41171200D03*
X95078660Y41171200D03*
X95728660Y41171200D03*
X96378660Y41171200D03*
%TD*%
D12*
%TO.C,C43*%
X97523000Y25146000D03*
X99073000Y25146000D03*
%TD*%
D13*
%TO.C,U11*%
X101411000Y25171000D03*
X101411000Y26441000D03*
X101411000Y27711000D03*
X101411000Y28981000D03*
X101411000Y30251000D03*
X101411000Y31521000D03*
X101411000Y32791000D03*
X101411000Y34061000D03*
X106361000Y34061000D03*
X106361000Y32791000D03*
X106361000Y31521000D03*
X106361000Y30251000D03*
X106361000Y28981000D03*
X106361000Y27711000D03*
X106361000Y26441000D03*
X106361000Y25171000D03*
%TD*%
D14*
%TO.C,R62*%
X95758000Y30543000D03*
X95758000Y28893000D03*
%TD*%
D15*
%TO.C,R17*%
X103492460Y36646150D03*
X103492460Y38296150D03*
%TD*%
D16*
%TO.C,Q5*%
X117499560Y2759150D03*
X117499560Y859150D03*
X115624560Y1809150D03*
%TD*%
D17*
%TO.C,C13*%
X73548000Y-24716000D03*
X73548000Y-19116000D03*
%TD*%
D14*
%TO.C,R24*%
X110115060Y-5430850D03*
X110115060Y-7080850D03*
%TD*%
D18*
%TO.C,C10*%
X79617000Y-20011000D03*
X78067000Y-20011000D03*
%TD*%
D19*
%TO.C,D1*%
X85472000Y33528000D03*
X88772000Y33528000D03*
%TD*%
D16*
%TO.C,Q3*%
X115800060Y-796850D03*
X115800060Y-2696850D03*
X113925060Y-1746850D03*
%TD*%
D15*
%TO.C,R61*%
X95758000Y25337000D03*
X95758000Y26987000D03*
%TD*%
D20*
%TO.C,C21*%
X72662000Y-13609500D03*
X72662000Y-12059500D03*
%TD*%
D15*
%TO.C,R21*%
X117656560Y-2571850D03*
X117656560Y-921850D03*
%TD*%
D21*
%TO.C,U6*%
X68936000Y-23053500D03*
X67986000Y-23053500D03*
X67036000Y-23053500D03*
X67036000Y-20778500D03*
X68936000Y-20778500D03*
%TD*%
D22*
%TO.C,J2*%
X107223560Y39883950D03*
X102953560Y39883950D03*
X103973560Y39883950D03*
X105993560Y39883950D03*
X101723560Y39883950D03*
X107223560Y39883950D03*
X105993560Y39883950D03*
X104973560Y39883950D03*
X102953560Y39883950D03*
X101723560Y39883950D03*
%TD*%
D18*
%TO.C,C11*%
X79617000Y-21916000D03*
X78067000Y-21916000D03*
%TD*%
D20*
%TO.C,C45*%
X97282000Y30721000D03*
X97282000Y32271000D03*
%TD*%
D23*
%TO.C,R20*%
X69043000Y-15804000D03*
X70693000Y-15804000D03*
%TD*%
D18*
%TO.C,C19*%
X77438000Y-16808000D03*
X75888000Y-16808000D03*
%TD*%
D24*
%TO.C,R19*%
X77488000Y-15296000D03*
X75838000Y-15296000D03*
%TD*%
D15*
%TO.C,R16*%
X105270460Y36646150D03*
X105270460Y38296150D03*
%TD*%
D10*
%TO.C,D8*%
X99085500Y26924000D03*
X97510500Y26924000D03*
%TD*%
D15*
%TO.C,R22*%
X119434560Y-8921850D03*
X119434560Y-7271850D03*
%TD*%
%TO.C,R18*%
X79198000Y-16871000D03*
X79198000Y-15221000D03*
%TD*%
D25*
%TO.C,Q4*%
X70884000Y-13772000D03*
X68984000Y-13772000D03*
X69934000Y-11897000D03*
%TD*%
D26*
%TO.C,D6*%
X79183000Y-13252000D03*
X75883000Y-13252000D03*
%TD*%
D20*
%TO.C,C44*%
X99060000Y30721000D03*
X99060000Y32271000D03*
%TD*%
D12*
%TO.C,C9*%
X67433000Y-19052000D03*
X68983000Y-19052000D03*
%TD*%
D14*
%TO.C,R23*%
X113672560Y2854150D03*
X113672560Y1204150D03*
%TD*%
D27*
%TO.C,C22*%
X112081060Y-2508850D03*
X110181060Y-2508850D03*
%TD*%
%TO.C,C20*%
X113780560Y-10128850D03*
X111880560Y-10128850D03*
%TD*%
D28*
%TO.C,BT1*%
X25961000Y673150D03*
X104661000Y673150D03*
%TD*%
D29*
%TO.C,U8*%
X114249060Y-5430850D03*
X114249060Y-7080850D03*
X115449060Y-5430850D03*
X115449060Y-7080850D03*
D13*
X112374060Y-8160850D03*
X112374060Y-6890850D03*
X112374060Y-5620850D03*
X112374060Y-4350850D03*
X117324060Y-4350850D03*
X117324060Y-5620850D03*
X117324060Y-6890850D03*
X117324060Y-8160850D03*
%TD*%
D10*
%TO.C,D9*%
X99085500Y28956000D03*
X97510500Y28956000D03*
%TD*%
D18*
%TO.C,C12*%
X79617000Y-23821000D03*
X78067000Y-23821000D03*
%TD*%
M02*
