%TF.GenerationSoftware,KiCad,Pcbnew,7.0.2*%
%TF.CreationDate,2023-05-23T12:29:29+08:00*%
%TF.ProjectId,remote_controller,72656d6f-7465-45f6-936f-6e74726f6c6c,rev?*%
%TF.SameCoordinates,PX715d7c0PY5feca40*%
%TF.FileFunction,Soldermask,Top*%
%TF.FilePolarity,Negative*%
%FSLAX46Y46*%
G04 Gerber Fmt 4.6, Leading zero omitted, Abs format (unit mm)*
G04 Created by KiCad (PCBNEW 7.0.2) date 2023-05-23 12:29:29*
%MOMM*%
%LPD*%
G01*
G04 APERTURE LIST*
G04 Aperture macros list*
%AMRoundRect*
0 Rectangle with rounded corners*
0 $1 Rounding radius*
0 $2 $3 $4 $5 $6 $7 $8 $9 X,Y pos of 4 corners*
0 Add a 4 corners polygon primitive as box body*
4,1,4,$2,$3,$4,$5,$6,$7,$8,$9,$2,$3,0*
0 Add four circle primitives for the rounded corners*
1,1,$1+$1,$2,$3*
1,1,$1+$1,$4,$5*
1,1,$1+$1,$6,$7*
1,1,$1+$1,$8,$9*
0 Add four rect primitives between the rounded corners*
20,1,$1+$1,$2,$3,$4,$5,0*
20,1,$1+$1,$4,$5,$6,$7,0*
20,1,$1+$1,$6,$7,$8,$9,0*
20,1,$1+$1,$8,$9,$2,$3,0*%
G04 Aperture macros list end*
%ADD10O,1.700000X1.700000*%
%ADD11R,1.700000X1.700000*%
%ADD12C,2.200000*%
%ADD13C,1.800000*%
%ADD14C,3.800000*%
%ADD15RoundRect,0.218750X-0.218750X-0.256250X0.218750X-0.256250X0.218750X0.256250X-0.218750X0.256250X0*%
%ADD16C,2.000000*%
%ADD17C,1.524000*%
%ADD18RoundRect,0.225000X0.225000X0.250000X-0.225000X0.250000X-0.225000X-0.250000X0.225000X-0.250000X0*%
%ADD19RoundRect,0.225000X-0.225000X-0.250000X0.225000X-0.250000X0.225000X0.250000X-0.225000X0.250000X0*%
%ADD20RoundRect,0.200000X0.275000X-0.200000X0.275000X0.200000X-0.275000X0.200000X-0.275000X-0.200000X0*%
%ADD21RoundRect,0.225000X-0.250000X0.225000X-0.250000X-0.225000X0.250000X-0.225000X0.250000X0.225000X0*%
%ADD22RoundRect,0.100000X0.100000X-0.637500X0.100000X0.637500X-0.100000X0.637500X-0.100000X-0.637500X0*%
%ADD23RoundRect,0.200000X-0.200000X-0.275000X0.200000X-0.275000X0.200000X0.275000X-0.200000X0.275000X0*%
%ADD24RoundRect,0.200000X-0.275000X0.200000X-0.275000X-0.200000X0.275000X-0.200000X0.275000X0.200000X0*%
%ADD25RoundRect,0.200000X0.200000X0.275000X-0.200000X0.275000X-0.200000X-0.275000X0.200000X-0.275000X0*%
%ADD26RoundRect,0.150000X0.150000X-0.512500X0.150000X0.512500X-0.150000X0.512500X-0.150000X-0.512500X0*%
%ADD27RoundRect,0.250000X0.550000X-1.500000X0.550000X1.500000X-0.550000X1.500000X-0.550000X-1.500000X0*%
%ADD28RoundRect,0.150000X-0.587500X-0.150000X0.587500X-0.150000X0.587500X0.150000X-0.587500X0.150000X0*%
%ADD29R,2.000000X2.000000*%
%ADD30RoundRect,0.225000X0.250000X-0.225000X0.250000X0.225000X-0.250000X0.225000X-0.250000X-0.225000X0*%
%ADD31RoundRect,0.150000X0.725000X0.150000X-0.725000X0.150000X-0.725000X-0.150000X0.725000X-0.150000X0*%
%ADD32RoundRect,0.150000X0.587500X0.150000X-0.587500X0.150000X-0.587500X-0.150000X0.587500X-0.150000X0*%
%ADD33O,0.800000X1.700000*%
%ADD34O,1.000000X1.500000*%
G04 APERTURE END LIST*
D10*
%TO.C,J4*%
X50860800Y64704595D03*
X48320800Y64704595D03*
X45780800Y64704595D03*
D11*
X43240800Y64704595D03*
%TD*%
%TO.C,J5*%
X79308800Y64652000D03*
D10*
X81848800Y64652000D03*
X84388800Y64652000D03*
X86928800Y64652000D03*
%TD*%
D11*
%TO.C,J7*%
X61315600Y45161200D03*
D10*
X63855600Y45161200D03*
X66395600Y45161200D03*
X68935600Y45161200D03*
%TD*%
D11*
%TO.C,J6*%
X50038000Y45161200D03*
D10*
X52578000Y45161200D03*
X55118000Y45161200D03*
X57658000Y45161200D03*
%TD*%
D12*
%TO.C,SW2*%
X27910060Y-16958350D03*
X27910060Y-23458350D03*
D13*
X36510060Y-29208350D03*
X43010060Y-22708350D03*
X31510060Y-29208350D03*
X43010060Y-17708350D03*
X34010060Y-29208350D03*
X43010060Y-20208350D03*
D12*
X23910060Y-16958350D03*
X23910060Y-23458350D03*
D14*
X28260060Y-13458350D03*
X28260060Y-26958350D03*
X39760060Y-13458350D03*
X39760060Y-26958350D03*
%TD*%
D12*
%TO.C,SW3*%
X90648060Y-16958350D03*
X90648060Y-23458350D03*
D13*
X99248060Y-29208350D03*
X105748060Y-22708350D03*
X94248060Y-29208350D03*
X105748060Y-17708350D03*
X96748060Y-29208350D03*
X105748060Y-20208350D03*
D12*
X86648060Y-16958350D03*
X86648060Y-23458350D03*
D14*
X90998060Y-13458350D03*
X90998060Y-26958350D03*
X102498060Y-13458350D03*
X102498060Y-26958350D03*
%TD*%
D15*
%TO.C,D3*%
X47273060Y7671150D03*
X48848060Y7671150D03*
%TD*%
D11*
%TO.C,RV1*%
X41326060Y45210150D03*
D10*
X43866060Y45210150D03*
X46406060Y45210150D03*
%TD*%
D16*
%TO.C,SW10*%
X89599625Y54224000D03*
X89599625Y60724000D03*
X94099625Y54224000D03*
X94099625Y60724000D03*
%TD*%
D17*
%TO.C,U2*%
X75261700Y36138000D03*
X77801700Y36138000D03*
X80341700Y36138000D03*
X82881700Y36138000D03*
%TD*%
D18*
%TO.C,C41*%
X124527560Y10953150D03*
X122977560Y10953150D03*
%TD*%
%TO.C,C26*%
X70535600Y19659600D03*
X68985600Y19659600D03*
%TD*%
%TO.C,C40*%
X114621560Y12731150D03*
X113071560Y12731150D03*
%TD*%
D19*
%TO.C,C6*%
X31323560Y2484149D03*
X32873560Y2484149D03*
%TD*%
%TO.C,C15*%
X87203560Y2357149D03*
X88753560Y2357149D03*
%TD*%
D20*
%TO.C,R27*%
X36902875Y63559595D03*
X36902875Y65209595D03*
%TD*%
D19*
%TO.C,C23*%
X22647560Y34575150D03*
X24197560Y34575150D03*
%TD*%
%TO.C,C1*%
X72732000Y40894000D03*
X74282000Y40894000D03*
%TD*%
D18*
%TO.C,C4*%
X43541560Y3494649D03*
X41991560Y3494649D03*
%TD*%
D21*
%TO.C,C24*%
X38680875Y65159595D03*
X38680875Y63609595D03*
%TD*%
D22*
%TO.C,U3*%
X75774000Y39555500D03*
X76424000Y39555500D03*
X77074000Y39555500D03*
X77724000Y39555500D03*
X78374000Y39555500D03*
X79024000Y39555500D03*
X79674000Y39555500D03*
X80324000Y39555500D03*
X80974000Y39555500D03*
X81624000Y39555500D03*
X82274000Y39555500D03*
X82924000Y39555500D03*
X82924000Y45280500D03*
X82274000Y45280500D03*
X81624000Y45280500D03*
X80974000Y45280500D03*
X80324000Y45280500D03*
X79674000Y45280500D03*
X79024000Y45280500D03*
X78374000Y45280500D03*
X77724000Y45280500D03*
X77074000Y45280500D03*
X76424000Y45280500D03*
X75774000Y45280500D03*
%TD*%
D23*
%TO.C,R1*%
X84366000Y45212000D03*
X86016000Y45212000D03*
%TD*%
D20*
%TO.C,R40*%
X89690625Y63507000D03*
X89690625Y65157000D03*
%TD*%
D23*
%TO.C,R30*%
X68935600Y18034000D03*
X70585600Y18034000D03*
%TD*%
%TO.C,R12*%
X50537560Y7671150D03*
X52187560Y7671150D03*
%TD*%
D19*
%TO.C,C16*%
X87203560Y579149D03*
X88753560Y579149D03*
%TD*%
D23*
%TO.C,R37*%
X14723560Y12731150D03*
X16373560Y12731150D03*
%TD*%
D18*
%TO.C,C14*%
X99389560Y3627149D03*
X97839560Y3627149D03*
%TD*%
D20*
%TO.C,R15*%
X54704560Y-15017850D03*
X54704560Y-13367850D03*
%TD*%
D23*
%TO.C,R25*%
X19486560Y32797150D03*
X21136560Y32797150D03*
%TD*%
D18*
%TO.C,C38*%
X114621560Y21367150D03*
X113071560Y21367150D03*
%TD*%
D24*
%TO.C,R43*%
X20374560Y-16923850D03*
X20374560Y-18573850D03*
%TD*%
D25*
%TO.C,R2*%
X74333000Y45744000D03*
X72683000Y45744000D03*
%TD*%
%TO.C,R5*%
X86016000Y40640000D03*
X84366000Y40640000D03*
%TD*%
D23*
%TO.C,R49*%
X103115560Y10953150D03*
X104765560Y10953150D03*
%TD*%
D15*
%TO.C,D5*%
X78515060Y7651150D03*
X80090060Y7651150D03*
%TD*%
D23*
%TO.C,R59*%
X122927560Y12731150D03*
X124577560Y12731150D03*
%TD*%
D25*
%TO.C,R4*%
X86016000Y42164000D03*
X84366000Y42164000D03*
%TD*%
D20*
%TO.C,R28*%
X40458875Y63559595D03*
X40458875Y65209595D03*
%TD*%
D25*
%TO.C,R8*%
X64123000Y-5516850D03*
X62473000Y-5516850D03*
%TD*%
D23*
%TO.C,R38*%
X58712600Y12141200D03*
X60362600Y12141200D03*
%TD*%
%TO.C,R6*%
X72693000Y44224000D03*
X74343000Y44224000D03*
%TD*%
D25*
%TO.C,R39*%
X25717000Y12954000D03*
X24067000Y12954000D03*
%TD*%
D23*
%TO.C,R3*%
X72682000Y42418000D03*
X74332000Y42418000D03*
%TD*%
D26*
%TO.C,U5*%
X42004560Y-558351D03*
X42954560Y-558351D03*
X43904560Y-558351D03*
X43904560Y1716649D03*
X42004560Y1716649D03*
%TD*%
D20*
%TO.C,R50*%
X83112560Y-20225850D03*
X83112560Y-21875850D03*
%TD*%
D18*
%TO.C,C39*%
X49595000Y-7294850D03*
X48045000Y-7294850D03*
%TD*%
D25*
%TO.C,R26*%
X24247560Y32797150D03*
X22597560Y32797150D03*
%TD*%
D27*
%TO.C,C18*%
X93272560Y-2220851D03*
X93272560Y3379149D03*
%TD*%
D16*
%TO.C,SW9*%
X22892000Y20030150D03*
X29392000Y20030150D03*
X22892000Y15530150D03*
X29392000Y15530150D03*
%TD*%
D25*
%TO.C,R54*%
X117910560Y12731150D03*
X116260560Y12731150D03*
%TD*%
D19*
%TO.C,C7*%
X31323560Y579149D03*
X32873560Y579149D03*
%TD*%
D20*
%TO.C,R45*%
X73053625Y63507000D03*
X73053625Y65157000D03*
%TD*%
D19*
%TO.C,C2*%
X72732000Y39370000D03*
X74282000Y39370000D03*
%TD*%
D20*
%TO.C,R44*%
X20374560Y-21875850D03*
X20374560Y-20225850D03*
%TD*%
D24*
%TO.C,R11*%
X73712000Y-7485850D03*
X73712000Y-9135850D03*
%TD*%
D28*
%TO.C,Q1*%
X65916500Y-9138850D03*
X65916500Y-11038850D03*
X67791500Y-10088850D03*
%TD*%
D29*
%TO.C,BZ1*%
X57752560Y-14700850D03*
D16*
X62752560Y-14700850D03*
%TD*%
D21*
%TO.C,C34*%
X18596560Y-20275850D03*
X18596560Y-21825850D03*
%TD*%
D25*
%TO.C,R51*%
X117719560Y22891150D03*
X116069560Y22891150D03*
%TD*%
%TO.C,R58*%
X84189000Y-5516850D03*
X82539000Y-5516850D03*
%TD*%
D16*
%TO.C,SW5*%
X36862875Y54276595D03*
X36862875Y60776595D03*
X41362875Y54276595D03*
X41362875Y60776595D03*
%TD*%
D17*
%TO.C,U1*%
X47778300Y36138000D03*
X50318300Y36138000D03*
X52858300Y36138000D03*
X55398300Y36138000D03*
%TD*%
D16*
%TO.C,SW7*%
X53448875Y54276595D03*
X53448875Y60776595D03*
X57948875Y54276595D03*
X57948875Y60776595D03*
%TD*%
D20*
%TO.C,R34*%
X56841875Y63559595D03*
X56841875Y65209595D03*
%TD*%
D16*
%TO.C,SW1*%
X62080000Y1778000D03*
X68580000Y1778000D03*
X62080000Y-2722000D03*
X68580000Y-2722000D03*
%TD*%
%TO.C,SW17*%
X77701000Y1778000D03*
X84201000Y1778000D03*
X77701000Y-2722000D03*
X84201000Y-2722000D03*
%TD*%
%TO.C,SW13*%
X111356250Y30063150D03*
X117856250Y30063150D03*
X111356250Y25563150D03*
X117856250Y25563150D03*
%TD*%
D30*
%TO.C,C25*%
X14024560Y18560150D03*
X14024560Y20110150D03*
%TD*%
D18*
%TO.C,C42*%
X80837000Y-7294850D03*
X79287000Y-7294850D03*
%TD*%
D23*
%TO.C,R60*%
X79237000Y-5516850D03*
X80887000Y-5516850D03*
%TD*%
D31*
%TO.C,U9*%
X33055000Y34417000D03*
X33055000Y35687000D03*
X33055000Y36957000D03*
X33055000Y38227000D03*
X33055000Y39497000D03*
X33055000Y40767000D03*
X33055000Y42037000D03*
X33055000Y43307000D03*
X27905000Y43307000D03*
X27905000Y42037000D03*
X27905000Y40767000D03*
X27905000Y39497000D03*
X27905000Y38227000D03*
X27905000Y36957000D03*
X27905000Y35687000D03*
X27905000Y34417000D03*
%TD*%
D20*
%TO.C,R29*%
X12246560Y15462150D03*
X12246560Y17112150D03*
%TD*%
D25*
%TO.C,R35*%
X19421560Y12731150D03*
X17771560Y12731150D03*
%TD*%
D21*
%TO.C,C28*%
X55190875Y65159595D03*
X55190875Y63609595D03*
%TD*%
D26*
%TO.C,U7*%
X97884560Y-558351D03*
X98834560Y-558351D03*
X99784560Y-558351D03*
X99784560Y1716649D03*
X97884560Y1716649D03*
%TD*%
D19*
%TO.C,C3*%
X61613000Y18034000D03*
X60063000Y18034000D03*
%TD*%
D16*
%TO.C,SW12*%
X101268000Y20030150D03*
X107768000Y20030150D03*
X101268000Y15530150D03*
X107768000Y15530150D03*
%TD*%
D28*
%TO.C,D2*%
X65916500Y-5582850D03*
X65916500Y-7482850D03*
X67791500Y-6532850D03*
%TD*%
D25*
%TO.C,R46*%
X107813560Y12731150D03*
X106163560Y12731150D03*
%TD*%
D19*
%TO.C,C32*%
X24117000Y9398000D03*
X25667000Y9398000D03*
%TD*%
D23*
%TO.C,R14*%
X81779560Y7691150D03*
X83429560Y7691150D03*
%TD*%
D18*
%TO.C,C29*%
X16323560Y14509150D03*
X14773560Y14509150D03*
%TD*%
D20*
%TO.C,R47*%
X74831625Y63507000D03*
X74831625Y65157000D03*
%TD*%
D21*
%TO.C,C33*%
X92992625Y65107000D03*
X92992625Y63557000D03*
%TD*%
D16*
%TO.C,SW8*%
X12885000Y9997150D03*
X19385000Y9997150D03*
X12885000Y5497150D03*
X19385000Y5497150D03*
%TD*%
%TO.C,SW14*%
X46459000Y1778000D03*
X52959000Y1778000D03*
X46459000Y-2722000D03*
X52959000Y-2722000D03*
%TD*%
D20*
%TO.C,R10*%
X75490000Y-9135850D03*
X75490000Y-7485850D03*
%TD*%
D21*
%TO.C,C37*%
X81334560Y-21825850D03*
X81334560Y-20275850D03*
%TD*%
D16*
%TO.C,SW15*%
X111356250Y9997150D03*
X117856250Y9997150D03*
X111356250Y5497150D03*
X117856250Y5497150D03*
%TD*%
D25*
%TO.C,R9*%
X64123000Y-7548850D03*
X62473000Y-7548850D03*
%TD*%
D24*
%TO.C,R31*%
X12246560Y20160150D03*
X12246560Y18510150D03*
%TD*%
D18*
%TO.C,C31*%
X60312600Y13766800D03*
X58762600Y13766800D03*
%TD*%
D25*
%TO.C,R7*%
X86016000Y43688000D03*
X84366000Y43688000D03*
%TD*%
D18*
%TO.C,C36*%
X104715560Y12731150D03*
X103165560Y12731150D03*
%TD*%
D20*
%TO.C,R33*%
X53539875Y63559595D03*
X53539875Y65209595D03*
%TD*%
D23*
%TO.C,R32*%
X67462400Y18034000D03*
X65812400Y18034000D03*
%TD*%
D21*
%TO.C,C35*%
X76609625Y65107000D03*
X76609625Y63557000D03*
%TD*%
D32*
%TO.C,Q2*%
X71777000Y-9260850D03*
X71777000Y-7360850D03*
X69902000Y-8310850D03*
%TD*%
D27*
%TO.C,C8*%
X37392560Y-2220851D03*
X37392560Y3379149D03*
%TD*%
D16*
%TO.C,SW4*%
X12885000Y30063150D03*
X19385000Y30063150D03*
X12885000Y25563150D03*
X19385000Y25563150D03*
%TD*%
D24*
%TO.C,R48*%
X83112560Y-18573850D03*
X83112560Y-16923850D03*
%TD*%
D25*
%TO.C,R41*%
X25717000Y11176000D03*
X24067000Y11176000D03*
%TD*%
D23*
%TO.C,R56*%
X113084560Y14509150D03*
X114734560Y14509150D03*
%TD*%
%TO.C,R55*%
X47995000Y-5516850D03*
X49645000Y-5516850D03*
%TD*%
D16*
%TO.C,SW6*%
X2878000Y20030150D03*
X9378000Y20030150D03*
X2878000Y15530150D03*
X9378000Y15530150D03*
%TD*%
D25*
%TO.C,R57*%
X127625560Y12731150D03*
X125975560Y12731150D03*
%TD*%
%TO.C,R53*%
X52947000Y-5516850D03*
X51297000Y-5516850D03*
%TD*%
D19*
%TO.C,C5*%
X31323560Y-1325851D03*
X32873560Y-1325851D03*
%TD*%
D16*
%TO.C,SW11*%
X73013625Y54224000D03*
X73013625Y60724000D03*
X77513625Y54224000D03*
X77513625Y60724000D03*
%TD*%
D23*
%TO.C,R52*%
X113021560Y22891150D03*
X114671560Y22891150D03*
%TD*%
%TO.C,R13*%
X66158560Y7691150D03*
X67808560Y7691150D03*
%TD*%
D15*
%TO.C,D4*%
X62894060Y7651150D03*
X64469060Y7651150D03*
%TD*%
D21*
%TO.C,C30*%
X64566800Y12382200D03*
X64566800Y13932200D03*
%TD*%
D20*
%TO.C,R36*%
X66090800Y13982200D03*
X66090800Y12332200D03*
%TD*%
D31*
%TO.C,U10*%
X33055000Y22764150D03*
X33055000Y24034150D03*
X33055000Y25304150D03*
X33055000Y26574150D03*
X33055000Y27844150D03*
X33055000Y29114150D03*
X33055000Y30384150D03*
X33055000Y31654150D03*
X27905000Y31654150D03*
X27905000Y30384150D03*
X27905000Y29114150D03*
X27905000Y27844150D03*
X27905000Y26574150D03*
X27905000Y25304150D03*
X27905000Y24034150D03*
X27905000Y22764150D03*
%TD*%
D19*
%TO.C,C17*%
X87203560Y-1198851D03*
X88753560Y-1198851D03*
%TD*%
D16*
%TO.C,SW16*%
X121282000Y20030150D03*
X127782000Y20030150D03*
X121282000Y15530150D03*
X127782000Y15530150D03*
%TD*%
D18*
%TO.C,C27*%
X67424600Y19659600D03*
X65874600Y19659600D03*
%TD*%
D20*
%TO.C,R42*%
X91341625Y63507000D03*
X91341625Y65157000D03*
%TD*%
D33*
%TO.C,J3*%
X91503660Y44196000D03*
X91503660Y40746000D03*
X98653660Y44196000D03*
X98653660Y40746000D03*
%TD*%
D11*
%TO.C,J1*%
X35852000Y12865150D03*
D10*
X33312000Y12865150D03*
X30772000Y12865150D03*
X28232000Y12865150D03*
%TD*%
D34*
%TO.C,J2*%
X100153560Y44573150D03*
X100153560Y40773150D03*
X108793560Y44573150D03*
X108793560Y40773150D03*
%TD*%
D17*
%TO.C,U4*%
X90488700Y15918150D03*
X87948700Y15918150D03*
X85408700Y15918150D03*
X82868700Y15918150D03*
X80328700Y15918150D03*
X77788700Y15918150D03*
X75248700Y15918150D03*
X72708700Y15918150D03*
X70168700Y15918150D03*
X67628700Y15918150D03*
X65088700Y15918150D03*
X62548700Y15918150D03*
X60008700Y15918150D03*
X57468700Y15918150D03*
X54928700Y15918150D03*
X52388700Y15918150D03*
X49848700Y15918150D03*
X47308700Y15918150D03*
X44768700Y15918150D03*
X42228700Y15918150D03*
X42228700Y31158150D03*
X44768700Y31158150D03*
X47308700Y31158150D03*
X49848700Y31158150D03*
X52388700Y31158150D03*
X54928700Y31158150D03*
X57468700Y31158150D03*
X60008700Y31158150D03*
X62548700Y31158150D03*
X65088700Y31158150D03*
X67628700Y31158150D03*
X70168700Y31158150D03*
X72708700Y31158150D03*
X75248700Y31158150D03*
X77788700Y31158150D03*
X80328700Y31158150D03*
X82868700Y31158150D03*
X85408700Y31158150D03*
X87948700Y31158150D03*
X90488700Y31158150D03*
%TD*%
M02*
