%TF.GenerationSoftware,KiCad,Pcbnew,7.0.2*%
%TF.CreationDate,2023-05-23T12:29:29+08:00*%
%TF.ProjectId,remote_controller,72656d6f-7465-45f6-936f-6e74726f6c6c,rev?*%
%TF.SameCoordinates,PX715d7c0PY5feca40*%
%TF.FileFunction,Legend,Bot*%
%TF.FilePolarity,Positive*%
%FSLAX46Y46*%
G04 Gerber Fmt 4.6, Leading zero omitted, Abs format (unit mm)*
G04 Created by KiCad (PCBNEW 7.0.2) date 2023-05-23 12:29:29*
%MOMM*%
%LPD*%
G01*
G04 APERTURE LIST*
%ADD10C,0.150000*%
%ADD11C,0.200000*%
%ADD12C,0.120000*%
G04 APERTURE END LIST*
D10*
%TO.C,D7*%
X117706094Y-11798619D02*
X117706094Y-10798619D01*
X117706094Y-10798619D02*
X117467999Y-10798619D01*
X117467999Y-10798619D02*
X117325142Y-10846238D01*
X117325142Y-10846238D02*
X117229904Y-10941476D01*
X117229904Y-10941476D02*
X117182285Y-11036714D01*
X117182285Y-11036714D02*
X117134666Y-11227190D01*
X117134666Y-11227190D02*
X117134666Y-11370047D01*
X117134666Y-11370047D02*
X117182285Y-11560523D01*
X117182285Y-11560523D02*
X117229904Y-11655761D01*
X117229904Y-11655761D02*
X117325142Y-11751000D01*
X117325142Y-11751000D02*
X117467999Y-11798619D01*
X117467999Y-11798619D02*
X117706094Y-11798619D01*
X116801332Y-10798619D02*
X116134666Y-10798619D01*
X116134666Y-10798619D02*
X116563237Y-11798619D01*
%TO.C,J3*%
X94354666Y42876620D02*
X94354666Y43590905D01*
X94354666Y43590905D02*
X94307047Y43733762D01*
X94307047Y43733762D02*
X94211809Y43829000D01*
X94211809Y43829000D02*
X94068952Y43876620D01*
X94068952Y43876620D02*
X93973714Y43876620D01*
X94735619Y42876620D02*
X95354666Y42876620D01*
X95354666Y42876620D02*
X95021333Y43257572D01*
X95021333Y43257572D02*
X95164190Y43257572D01*
X95164190Y43257572D02*
X95259428Y43305191D01*
X95259428Y43305191D02*
X95307047Y43352810D01*
X95307047Y43352810D02*
X95354666Y43448048D01*
X95354666Y43448048D02*
X95354666Y43686143D01*
X95354666Y43686143D02*
X95307047Y43781381D01*
X95307047Y43781381D02*
X95259428Y43829000D01*
X95259428Y43829000D02*
X95164190Y43876620D01*
X95164190Y43876620D02*
X94878476Y43876620D01*
X94878476Y43876620D02*
X94783238Y43829000D01*
X94783238Y43829000D02*
X94735619Y43781381D01*
%TO.C,C43*%
X98940857Y23348620D02*
X98988476Y23301000D01*
X98988476Y23301000D02*
X99131333Y23253381D01*
X99131333Y23253381D02*
X99226571Y23253381D01*
X99226571Y23253381D02*
X99369428Y23301000D01*
X99369428Y23301000D02*
X99464666Y23396239D01*
X99464666Y23396239D02*
X99512285Y23491477D01*
X99512285Y23491477D02*
X99559904Y23681953D01*
X99559904Y23681953D02*
X99559904Y23824810D01*
X99559904Y23824810D02*
X99512285Y24015286D01*
X99512285Y24015286D02*
X99464666Y24110524D01*
X99464666Y24110524D02*
X99369428Y24205762D01*
X99369428Y24205762D02*
X99226571Y24253381D01*
X99226571Y24253381D02*
X99131333Y24253381D01*
X99131333Y24253381D02*
X98988476Y24205762D01*
X98988476Y24205762D02*
X98940857Y24158143D01*
X98083714Y23920048D02*
X98083714Y23253381D01*
X98321809Y24301000D02*
X98559904Y23586715D01*
X98559904Y23586715D02*
X97940857Y23586715D01*
X97655142Y24253381D02*
X97036095Y24253381D01*
X97036095Y24253381D02*
X97369428Y23872429D01*
X97369428Y23872429D02*
X97226571Y23872429D01*
X97226571Y23872429D02*
X97131333Y23824810D01*
X97131333Y23824810D02*
X97083714Y23777191D01*
X97083714Y23777191D02*
X97036095Y23681953D01*
X97036095Y23681953D02*
X97036095Y23443858D01*
X97036095Y23443858D02*
X97083714Y23348620D01*
X97083714Y23348620D02*
X97131333Y23301000D01*
X97131333Y23301000D02*
X97226571Y23253381D01*
X97226571Y23253381D02*
X97512285Y23253381D01*
X97512285Y23253381D02*
X97607523Y23301000D01*
X97607523Y23301000D02*
X97655142Y23348620D01*
%TO.C,U11*%
X105124094Y24253381D02*
X105124094Y23443858D01*
X105124094Y23443858D02*
X105076475Y23348620D01*
X105076475Y23348620D02*
X105028856Y23301000D01*
X105028856Y23301000D02*
X104933618Y23253381D01*
X104933618Y23253381D02*
X104743142Y23253381D01*
X104743142Y23253381D02*
X104647904Y23301000D01*
X104647904Y23301000D02*
X104600285Y23348620D01*
X104600285Y23348620D02*
X104552666Y23443858D01*
X104552666Y23443858D02*
X104552666Y24253381D01*
X103552666Y23253381D02*
X104124094Y23253381D01*
X103838380Y23253381D02*
X103838380Y24253381D01*
X103838380Y24253381D02*
X103933618Y24110524D01*
X103933618Y24110524D02*
X104028856Y24015286D01*
X104028856Y24015286D02*
X104124094Y23967667D01*
X102600285Y23253381D02*
X103171713Y23253381D01*
X102885999Y23253381D02*
X102885999Y24253381D01*
X102885999Y24253381D02*
X102981237Y24110524D01*
X102981237Y24110524D02*
X103076475Y24015286D01*
X103076475Y24015286D02*
X103171713Y23967667D01*
%TO.C,R62*%
X94790619Y30360858D02*
X94314428Y30694191D01*
X94790619Y30932286D02*
X93790619Y30932286D01*
X93790619Y30932286D02*
X93790619Y30551334D01*
X93790619Y30551334D02*
X93838238Y30456096D01*
X93838238Y30456096D02*
X93885857Y30408477D01*
X93885857Y30408477D02*
X93981095Y30360858D01*
X93981095Y30360858D02*
X94123952Y30360858D01*
X94123952Y30360858D02*
X94219190Y30408477D01*
X94219190Y30408477D02*
X94266809Y30456096D01*
X94266809Y30456096D02*
X94314428Y30551334D01*
X94314428Y30551334D02*
X94314428Y30932286D01*
X93790619Y29503715D02*
X93790619Y29694191D01*
X93790619Y29694191D02*
X93838238Y29789429D01*
X93838238Y29789429D02*
X93885857Y29837048D01*
X93885857Y29837048D02*
X94028714Y29932286D01*
X94028714Y29932286D02*
X94219190Y29979905D01*
X94219190Y29979905D02*
X94600142Y29979905D01*
X94600142Y29979905D02*
X94695380Y29932286D01*
X94695380Y29932286D02*
X94743000Y29884667D01*
X94743000Y29884667D02*
X94790619Y29789429D01*
X94790619Y29789429D02*
X94790619Y29598953D01*
X94790619Y29598953D02*
X94743000Y29503715D01*
X94743000Y29503715D02*
X94695380Y29456096D01*
X94695380Y29456096D02*
X94600142Y29408477D01*
X94600142Y29408477D02*
X94362047Y29408477D01*
X94362047Y29408477D02*
X94266809Y29456096D01*
X94266809Y29456096D02*
X94219190Y29503715D01*
X94219190Y29503715D02*
X94171571Y29598953D01*
X94171571Y29598953D02*
X94171571Y29789429D01*
X94171571Y29789429D02*
X94219190Y29884667D01*
X94219190Y29884667D02*
X94266809Y29932286D01*
X94266809Y29932286D02*
X94362047Y29979905D01*
X93885857Y29027524D02*
X93838238Y28979905D01*
X93838238Y28979905D02*
X93790619Y28884667D01*
X93790619Y28884667D02*
X93790619Y28646572D01*
X93790619Y28646572D02*
X93838238Y28551334D01*
X93838238Y28551334D02*
X93885857Y28503715D01*
X93885857Y28503715D02*
X93981095Y28456096D01*
X93981095Y28456096D02*
X94076333Y28456096D01*
X94076333Y28456096D02*
X94219190Y28503715D01*
X94219190Y28503715D02*
X94790619Y29075143D01*
X94790619Y29075143D02*
X94790619Y28456096D01*
%TO.C,R17*%
X102690619Y38026858D02*
X102214428Y38360191D01*
X102690619Y38598286D02*
X101690619Y38598286D01*
X101690619Y38598286D02*
X101690619Y38217334D01*
X101690619Y38217334D02*
X101738238Y38122096D01*
X101738238Y38122096D02*
X101785857Y38074477D01*
X101785857Y38074477D02*
X101881095Y38026858D01*
X101881095Y38026858D02*
X102023952Y38026858D01*
X102023952Y38026858D02*
X102119190Y38074477D01*
X102119190Y38074477D02*
X102166809Y38122096D01*
X102166809Y38122096D02*
X102214428Y38217334D01*
X102214428Y38217334D02*
X102214428Y38598286D01*
X102690619Y37074477D02*
X102690619Y37645905D01*
X102690619Y37360191D02*
X101690619Y37360191D01*
X101690619Y37360191D02*
X101833476Y37455429D01*
X101833476Y37455429D02*
X101928714Y37550667D01*
X101928714Y37550667D02*
X101976333Y37645905D01*
X101690619Y36741143D02*
X101690619Y36074477D01*
X101690619Y36074477D02*
X102690619Y36503048D01*
%TO.C,Q5*%
X116657298Y3651293D02*
X116752536Y3698912D01*
X116752536Y3698912D02*
X116847774Y3794150D01*
X116847774Y3794150D02*
X116990631Y3937008D01*
X116990631Y3937008D02*
X117085869Y3984627D01*
X117085869Y3984627D02*
X117181107Y3984627D01*
X117133488Y3746531D02*
X117228726Y3794150D01*
X117228726Y3794150D02*
X117323964Y3889389D01*
X117323964Y3889389D02*
X117371583Y4079865D01*
X117371583Y4079865D02*
X117371583Y4413198D01*
X117371583Y4413198D02*
X117323964Y4603674D01*
X117323964Y4603674D02*
X117228726Y4698912D01*
X117228726Y4698912D02*
X117133488Y4746531D01*
X117133488Y4746531D02*
X116943012Y4746531D01*
X116943012Y4746531D02*
X116847774Y4698912D01*
X116847774Y4698912D02*
X116752536Y4603674D01*
X116752536Y4603674D02*
X116704917Y4413198D01*
X116704917Y4413198D02*
X116704917Y4079865D01*
X116704917Y4079865D02*
X116752536Y3889389D01*
X116752536Y3889389D02*
X116847774Y3794150D01*
X116847774Y3794150D02*
X116943012Y3746531D01*
X116943012Y3746531D02*
X117133488Y3746531D01*
X115800155Y4746531D02*
X116276345Y4746531D01*
X116276345Y4746531D02*
X116323964Y4270341D01*
X116323964Y4270341D02*
X116276345Y4317960D01*
X116276345Y4317960D02*
X116181107Y4365579D01*
X116181107Y4365579D02*
X115943012Y4365579D01*
X115943012Y4365579D02*
X115847774Y4317960D01*
X115847774Y4317960D02*
X115800155Y4270341D01*
X115800155Y4270341D02*
X115752536Y4175103D01*
X115752536Y4175103D02*
X115752536Y3937008D01*
X115752536Y3937008D02*
X115800155Y3841770D01*
X115800155Y3841770D02*
X115847774Y3794150D01*
X115847774Y3794150D02*
X115943012Y3746531D01*
X115943012Y3746531D02*
X116181107Y3746531D01*
X116181107Y3746531D02*
X116276345Y3794150D01*
X116276345Y3794150D02*
X116323964Y3841770D01*
%TO.C,C13*%
X75665380Y-21103142D02*
X75713000Y-21055523D01*
X75713000Y-21055523D02*
X75760619Y-20912666D01*
X75760619Y-20912666D02*
X75760619Y-20817428D01*
X75760619Y-20817428D02*
X75713000Y-20674571D01*
X75713000Y-20674571D02*
X75617761Y-20579333D01*
X75617761Y-20579333D02*
X75522523Y-20531714D01*
X75522523Y-20531714D02*
X75332047Y-20484095D01*
X75332047Y-20484095D02*
X75189190Y-20484095D01*
X75189190Y-20484095D02*
X74998714Y-20531714D01*
X74998714Y-20531714D02*
X74903476Y-20579333D01*
X74903476Y-20579333D02*
X74808238Y-20674571D01*
X74808238Y-20674571D02*
X74760619Y-20817428D01*
X74760619Y-20817428D02*
X74760619Y-20912666D01*
X74760619Y-20912666D02*
X74808238Y-21055523D01*
X74808238Y-21055523D02*
X74855857Y-21103142D01*
X75760619Y-22055523D02*
X75760619Y-21484095D01*
X75760619Y-21769809D02*
X74760619Y-21769809D01*
X74760619Y-21769809D02*
X74903476Y-21674571D01*
X74903476Y-21674571D02*
X74998714Y-21579333D01*
X74998714Y-21579333D02*
X75046333Y-21484095D01*
X74760619Y-22388857D02*
X74760619Y-23007904D01*
X74760619Y-23007904D02*
X75141571Y-22674571D01*
X75141571Y-22674571D02*
X75141571Y-22817428D01*
X75141571Y-22817428D02*
X75189190Y-22912666D01*
X75189190Y-22912666D02*
X75236809Y-22960285D01*
X75236809Y-22960285D02*
X75332047Y-23007904D01*
X75332047Y-23007904D02*
X75570142Y-23007904D01*
X75570142Y-23007904D02*
X75665380Y-22960285D01*
X75665380Y-22960285D02*
X75713000Y-22912666D01*
X75713000Y-22912666D02*
X75760619Y-22817428D01*
X75760619Y-22817428D02*
X75760619Y-22531714D01*
X75760619Y-22531714D02*
X75713000Y-22436476D01*
X75713000Y-22436476D02*
X75665380Y-22388857D01*
%TO.C,R24*%
X109147679Y-5612992D02*
X108671488Y-5279659D01*
X109147679Y-5041564D02*
X108147679Y-5041564D01*
X108147679Y-5041564D02*
X108147679Y-5422516D01*
X108147679Y-5422516D02*
X108195298Y-5517754D01*
X108195298Y-5517754D02*
X108242917Y-5565373D01*
X108242917Y-5565373D02*
X108338155Y-5612992D01*
X108338155Y-5612992D02*
X108481012Y-5612992D01*
X108481012Y-5612992D02*
X108576250Y-5565373D01*
X108576250Y-5565373D02*
X108623869Y-5517754D01*
X108623869Y-5517754D02*
X108671488Y-5422516D01*
X108671488Y-5422516D02*
X108671488Y-5041564D01*
X108242917Y-5993945D02*
X108195298Y-6041564D01*
X108195298Y-6041564D02*
X108147679Y-6136802D01*
X108147679Y-6136802D02*
X108147679Y-6374897D01*
X108147679Y-6374897D02*
X108195298Y-6470135D01*
X108195298Y-6470135D02*
X108242917Y-6517754D01*
X108242917Y-6517754D02*
X108338155Y-6565373D01*
X108338155Y-6565373D02*
X108433393Y-6565373D01*
X108433393Y-6565373D02*
X108576250Y-6517754D01*
X108576250Y-6517754D02*
X109147679Y-5946326D01*
X109147679Y-5946326D02*
X109147679Y-6565373D01*
X108481012Y-7422516D02*
X109147679Y-7422516D01*
X108100060Y-7184421D02*
X108814345Y-6946326D01*
X108814345Y-6946326D02*
X108814345Y-7565373D01*
%TO.C,C10*%
X82190857Y-20383380D02*
X82238476Y-20431000D01*
X82238476Y-20431000D02*
X82381333Y-20478619D01*
X82381333Y-20478619D02*
X82476571Y-20478619D01*
X82476571Y-20478619D02*
X82619428Y-20431000D01*
X82619428Y-20431000D02*
X82714666Y-20335761D01*
X82714666Y-20335761D02*
X82762285Y-20240523D01*
X82762285Y-20240523D02*
X82809904Y-20050047D01*
X82809904Y-20050047D02*
X82809904Y-19907190D01*
X82809904Y-19907190D02*
X82762285Y-19716714D01*
X82762285Y-19716714D02*
X82714666Y-19621476D01*
X82714666Y-19621476D02*
X82619428Y-19526238D01*
X82619428Y-19526238D02*
X82476571Y-19478619D01*
X82476571Y-19478619D02*
X82381333Y-19478619D01*
X82381333Y-19478619D02*
X82238476Y-19526238D01*
X82238476Y-19526238D02*
X82190857Y-19573857D01*
X81238476Y-20478619D02*
X81809904Y-20478619D01*
X81524190Y-20478619D02*
X81524190Y-19478619D01*
X81524190Y-19478619D02*
X81619428Y-19621476D01*
X81619428Y-19621476D02*
X81714666Y-19716714D01*
X81714666Y-19716714D02*
X81809904Y-19764333D01*
X80619428Y-19478619D02*
X80524190Y-19478619D01*
X80524190Y-19478619D02*
X80428952Y-19526238D01*
X80428952Y-19526238D02*
X80381333Y-19573857D01*
X80381333Y-19573857D02*
X80333714Y-19669095D01*
X80333714Y-19669095D02*
X80286095Y-19859571D01*
X80286095Y-19859571D02*
X80286095Y-20097666D01*
X80286095Y-20097666D02*
X80333714Y-20288142D01*
X80333714Y-20288142D02*
X80381333Y-20383380D01*
X80381333Y-20383380D02*
X80428952Y-20431000D01*
X80428952Y-20431000D02*
X80524190Y-20478619D01*
X80524190Y-20478619D02*
X80619428Y-20478619D01*
X80619428Y-20478619D02*
X80714666Y-20431000D01*
X80714666Y-20431000D02*
X80762285Y-20383380D01*
X80762285Y-20383380D02*
X80809904Y-20288142D01*
X80809904Y-20288142D02*
X80857523Y-20097666D01*
X80857523Y-20097666D02*
X80857523Y-19859571D01*
X80857523Y-19859571D02*
X80809904Y-19669095D01*
X80809904Y-19669095D02*
X80762285Y-19573857D01*
X80762285Y-19573857D02*
X80714666Y-19526238D01*
X80714666Y-19526238D02*
X80619428Y-19478619D01*
%TO.C,J1*%
X21558666Y10787770D02*
X21558666Y11502055D01*
X21558666Y11502055D02*
X21511047Y11644912D01*
X21511047Y11644912D02*
X21415809Y11740150D01*
X21415809Y11740150D02*
X21272952Y11787770D01*
X21272952Y11787770D02*
X21177714Y11787770D01*
X22558666Y11787770D02*
X21987238Y11787770D01*
X22272952Y11787770D02*
X22272952Y10787770D01*
X22272952Y10787770D02*
X22177714Y10930627D01*
X22177714Y10930627D02*
X22082476Y11025865D01*
X22082476Y11025865D02*
X21987238Y11073484D01*
X30309380Y15460579D02*
X30785571Y15127246D01*
X30309380Y14889151D02*
X31309380Y14889151D01*
X31309380Y14889151D02*
X31309380Y15270103D01*
X31309380Y15270103D02*
X31261761Y15365341D01*
X31261761Y15365341D02*
X31214142Y15412960D01*
X31214142Y15412960D02*
X31118904Y15460579D01*
X31118904Y15460579D02*
X30976047Y15460579D01*
X30976047Y15460579D02*
X30880809Y15412960D01*
X30880809Y15412960D02*
X30833190Y15365341D01*
X30833190Y15365341D02*
X30785571Y15270103D01*
X30785571Y15270103D02*
X30785571Y14889151D01*
X31309380Y15793913D02*
X30309380Y16460579D01*
X31309380Y16460579D02*
X30309380Y15793913D01*
X36389380Y14555818D02*
X35389380Y14889151D01*
X35389380Y14889151D02*
X36389380Y15222484D01*
X35484619Y16127246D02*
X35437000Y16079627D01*
X35437000Y16079627D02*
X35389380Y15936770D01*
X35389380Y15936770D02*
X35389380Y15841532D01*
X35389380Y15841532D02*
X35437000Y15698675D01*
X35437000Y15698675D02*
X35532238Y15603437D01*
X35532238Y15603437D02*
X35627476Y15555818D01*
X35627476Y15555818D02*
X35817952Y15508199D01*
X35817952Y15508199D02*
X35960809Y15508199D01*
X35960809Y15508199D02*
X36151285Y15555818D01*
X36151285Y15555818D02*
X36246523Y15603437D01*
X36246523Y15603437D02*
X36341761Y15698675D01*
X36341761Y15698675D02*
X36389380Y15841532D01*
X36389380Y15841532D02*
X36389380Y15936770D01*
X36389380Y15936770D02*
X36341761Y16079627D01*
X36341761Y16079627D02*
X36294142Y16127246D01*
X35484619Y17127246D02*
X35437000Y17079627D01*
X35437000Y17079627D02*
X35389380Y16936770D01*
X35389380Y16936770D02*
X35389380Y16841532D01*
X35389380Y16841532D02*
X35437000Y16698675D01*
X35437000Y16698675D02*
X35532238Y16603437D01*
X35532238Y16603437D02*
X35627476Y16555818D01*
X35627476Y16555818D02*
X35817952Y16508199D01*
X35817952Y16508199D02*
X35960809Y16508199D01*
X35960809Y16508199D02*
X36151285Y16555818D01*
X36151285Y16555818D02*
X36246523Y16603437D01*
X36246523Y16603437D02*
X36341761Y16698675D01*
X36341761Y16698675D02*
X36389380Y16841532D01*
X36389380Y16841532D02*
X36389380Y16936770D01*
X36389380Y16936770D02*
X36341761Y17079627D01*
X36341761Y17079627D02*
X36294142Y17127246D01*
X28721761Y15412960D02*
X28769380Y15317722D01*
X28769380Y15317722D02*
X28769380Y15174865D01*
X28769380Y15174865D02*
X28721761Y15032008D01*
X28721761Y15032008D02*
X28626523Y14936770D01*
X28626523Y14936770D02*
X28531285Y14889151D01*
X28531285Y14889151D02*
X28340809Y14841532D01*
X28340809Y14841532D02*
X28197952Y14841532D01*
X28197952Y14841532D02*
X28007476Y14889151D01*
X28007476Y14889151D02*
X27912238Y14936770D01*
X27912238Y14936770D02*
X27817000Y15032008D01*
X27817000Y15032008D02*
X27769380Y15174865D01*
X27769380Y15174865D02*
X27769380Y15270103D01*
X27769380Y15270103D02*
X27817000Y15412960D01*
X27817000Y15412960D02*
X27864619Y15460579D01*
X27864619Y15460579D02*
X28197952Y15460579D01*
X28197952Y15460579D02*
X28197952Y15270103D01*
X27769380Y15889151D02*
X28769380Y15889151D01*
X28769380Y15889151D02*
X27769380Y16460579D01*
X27769380Y16460579D02*
X28769380Y16460579D01*
X27769380Y16936770D02*
X28769380Y16936770D01*
X28769380Y16936770D02*
X28769380Y17174865D01*
X28769380Y17174865D02*
X28721761Y17317722D01*
X28721761Y17317722D02*
X28626523Y17412960D01*
X28626523Y17412960D02*
X28531285Y17460579D01*
X28531285Y17460579D02*
X28340809Y17508198D01*
X28340809Y17508198D02*
X28197952Y17508198D01*
X28197952Y17508198D02*
X28007476Y17460579D01*
X28007476Y17460579D02*
X27912238Y17412960D01*
X27912238Y17412960D02*
X27817000Y17317722D01*
X27817000Y17317722D02*
X27769380Y17174865D01*
X27769380Y17174865D02*
X27769380Y16936770D01*
X33849380Y14746294D02*
X33849380Y15317722D01*
X32849380Y15032008D02*
X33849380Y15032008D01*
X33849380Y15555818D02*
X32849380Y16222484D01*
X33849380Y16222484D02*
X32849380Y15555818D01*
%TO.C,D1*%
X87860094Y31065381D02*
X87860094Y32065381D01*
X87860094Y32065381D02*
X87621999Y32065381D01*
X87621999Y32065381D02*
X87479142Y32017762D01*
X87479142Y32017762D02*
X87383904Y31922524D01*
X87383904Y31922524D02*
X87336285Y31827286D01*
X87336285Y31827286D02*
X87288666Y31636810D01*
X87288666Y31636810D02*
X87288666Y31493953D01*
X87288666Y31493953D02*
X87336285Y31303477D01*
X87336285Y31303477D02*
X87383904Y31208239D01*
X87383904Y31208239D02*
X87479142Y31113000D01*
X87479142Y31113000D02*
X87621999Y31065381D01*
X87621999Y31065381D02*
X87860094Y31065381D01*
X86336285Y31065381D02*
X86907713Y31065381D01*
X86621999Y31065381D02*
X86621999Y32065381D01*
X86621999Y32065381D02*
X86717237Y31922524D01*
X86717237Y31922524D02*
X86812475Y31827286D01*
X86812475Y31827286D02*
X86907713Y31779667D01*
%TO.C,Q3*%
X114003238Y-783857D02*
X114098476Y-736238D01*
X114098476Y-736238D02*
X114193714Y-641000D01*
X114193714Y-641000D02*
X114336571Y-498142D01*
X114336571Y-498142D02*
X114431809Y-450523D01*
X114431809Y-450523D02*
X114527047Y-450523D01*
X114479428Y-688619D02*
X114574666Y-641000D01*
X114574666Y-641000D02*
X114669904Y-545761D01*
X114669904Y-545761D02*
X114717523Y-355285D01*
X114717523Y-355285D02*
X114717523Y-21952D01*
X114717523Y-21952D02*
X114669904Y168524D01*
X114669904Y168524D02*
X114574666Y263762D01*
X114574666Y263762D02*
X114479428Y311381D01*
X114479428Y311381D02*
X114288952Y311381D01*
X114288952Y311381D02*
X114193714Y263762D01*
X114193714Y263762D02*
X114098476Y168524D01*
X114098476Y168524D02*
X114050857Y-21952D01*
X114050857Y-21952D02*
X114050857Y-355285D01*
X114050857Y-355285D02*
X114098476Y-545761D01*
X114098476Y-545761D02*
X114193714Y-641000D01*
X114193714Y-641000D02*
X114288952Y-688619D01*
X114288952Y-688619D02*
X114479428Y-688619D01*
X113717523Y311381D02*
X113098476Y311381D01*
X113098476Y311381D02*
X113431809Y-69571D01*
X113431809Y-69571D02*
X113288952Y-69571D01*
X113288952Y-69571D02*
X113193714Y-117190D01*
X113193714Y-117190D02*
X113146095Y-164809D01*
X113146095Y-164809D02*
X113098476Y-260047D01*
X113098476Y-260047D02*
X113098476Y-498142D01*
X113098476Y-498142D02*
X113146095Y-593380D01*
X113146095Y-593380D02*
X113193714Y-641000D01*
X113193714Y-641000D02*
X113288952Y-688619D01*
X113288952Y-688619D02*
X113574666Y-688619D01*
X113574666Y-688619D02*
X113669904Y-641000D01*
X113669904Y-641000D02*
X113717523Y-593380D01*
%TO.C,R61*%
X94880619Y26766858D02*
X94404428Y27100191D01*
X94880619Y27338286D02*
X93880619Y27338286D01*
X93880619Y27338286D02*
X93880619Y26957334D01*
X93880619Y26957334D02*
X93928238Y26862096D01*
X93928238Y26862096D02*
X93975857Y26814477D01*
X93975857Y26814477D02*
X94071095Y26766858D01*
X94071095Y26766858D02*
X94213952Y26766858D01*
X94213952Y26766858D02*
X94309190Y26814477D01*
X94309190Y26814477D02*
X94356809Y26862096D01*
X94356809Y26862096D02*
X94404428Y26957334D01*
X94404428Y26957334D02*
X94404428Y27338286D01*
X93880619Y25909715D02*
X93880619Y26100191D01*
X93880619Y26100191D02*
X93928238Y26195429D01*
X93928238Y26195429D02*
X93975857Y26243048D01*
X93975857Y26243048D02*
X94118714Y26338286D01*
X94118714Y26338286D02*
X94309190Y26385905D01*
X94309190Y26385905D02*
X94690142Y26385905D01*
X94690142Y26385905D02*
X94785380Y26338286D01*
X94785380Y26338286D02*
X94833000Y26290667D01*
X94833000Y26290667D02*
X94880619Y26195429D01*
X94880619Y26195429D02*
X94880619Y26004953D01*
X94880619Y26004953D02*
X94833000Y25909715D01*
X94833000Y25909715D02*
X94785380Y25862096D01*
X94785380Y25862096D02*
X94690142Y25814477D01*
X94690142Y25814477D02*
X94452047Y25814477D01*
X94452047Y25814477D02*
X94356809Y25862096D01*
X94356809Y25862096D02*
X94309190Y25909715D01*
X94309190Y25909715D02*
X94261571Y26004953D01*
X94261571Y26004953D02*
X94261571Y26195429D01*
X94261571Y26195429D02*
X94309190Y26290667D01*
X94309190Y26290667D02*
X94356809Y26338286D01*
X94356809Y26338286D02*
X94452047Y26385905D01*
X94880619Y24862096D02*
X94880619Y25433524D01*
X94880619Y25147810D02*
X93880619Y25147810D01*
X93880619Y25147810D02*
X94023476Y25243048D01*
X94023476Y25243048D02*
X94118714Y25338286D01*
X94118714Y25338286D02*
X94166333Y25433524D01*
%TO.C,C21*%
X74459380Y-12191642D02*
X74507000Y-12144023D01*
X74507000Y-12144023D02*
X74554619Y-12001166D01*
X74554619Y-12001166D02*
X74554619Y-11905928D01*
X74554619Y-11905928D02*
X74507000Y-11763071D01*
X74507000Y-11763071D02*
X74411761Y-11667833D01*
X74411761Y-11667833D02*
X74316523Y-11620214D01*
X74316523Y-11620214D02*
X74126047Y-11572595D01*
X74126047Y-11572595D02*
X73983190Y-11572595D01*
X73983190Y-11572595D02*
X73792714Y-11620214D01*
X73792714Y-11620214D02*
X73697476Y-11667833D01*
X73697476Y-11667833D02*
X73602238Y-11763071D01*
X73602238Y-11763071D02*
X73554619Y-11905928D01*
X73554619Y-11905928D02*
X73554619Y-12001166D01*
X73554619Y-12001166D02*
X73602238Y-12144023D01*
X73602238Y-12144023D02*
X73649857Y-12191642D01*
X73649857Y-12572595D02*
X73602238Y-12620214D01*
X73602238Y-12620214D02*
X73554619Y-12715452D01*
X73554619Y-12715452D02*
X73554619Y-12953547D01*
X73554619Y-12953547D02*
X73602238Y-13048785D01*
X73602238Y-13048785D02*
X73649857Y-13096404D01*
X73649857Y-13096404D02*
X73745095Y-13144023D01*
X73745095Y-13144023D02*
X73840333Y-13144023D01*
X73840333Y-13144023D02*
X73983190Y-13096404D01*
X73983190Y-13096404D02*
X74554619Y-12524976D01*
X74554619Y-12524976D02*
X74554619Y-13144023D01*
X74554619Y-14096404D02*
X74554619Y-13524976D01*
X74554619Y-13810690D02*
X73554619Y-13810690D01*
X73554619Y-13810690D02*
X73697476Y-13715452D01*
X73697476Y-13715452D02*
X73792714Y-13620214D01*
X73792714Y-13620214D02*
X73840333Y-13524976D01*
%TO.C,R21*%
X119549179Y-1103992D02*
X119072988Y-770659D01*
X119549179Y-532564D02*
X118549179Y-532564D01*
X118549179Y-532564D02*
X118549179Y-913516D01*
X118549179Y-913516D02*
X118596798Y-1008754D01*
X118596798Y-1008754D02*
X118644417Y-1056373D01*
X118644417Y-1056373D02*
X118739655Y-1103992D01*
X118739655Y-1103992D02*
X118882512Y-1103992D01*
X118882512Y-1103992D02*
X118977750Y-1056373D01*
X118977750Y-1056373D02*
X119025369Y-1008754D01*
X119025369Y-1008754D02*
X119072988Y-913516D01*
X119072988Y-913516D02*
X119072988Y-532564D01*
X118644417Y-1484945D02*
X118596798Y-1532564D01*
X118596798Y-1532564D02*
X118549179Y-1627802D01*
X118549179Y-1627802D02*
X118549179Y-1865897D01*
X118549179Y-1865897D02*
X118596798Y-1961135D01*
X118596798Y-1961135D02*
X118644417Y-2008754D01*
X118644417Y-2008754D02*
X118739655Y-2056373D01*
X118739655Y-2056373D02*
X118834893Y-2056373D01*
X118834893Y-2056373D02*
X118977750Y-2008754D01*
X118977750Y-2008754D02*
X119549179Y-1437326D01*
X119549179Y-1437326D02*
X119549179Y-2056373D01*
X119549179Y-3008754D02*
X119549179Y-2437326D01*
X119549179Y-2723040D02*
X118549179Y-2723040D01*
X118549179Y-2723040D02*
X118692036Y-2627802D01*
X118692036Y-2627802D02*
X118787274Y-2532564D01*
X118787274Y-2532564D02*
X118834893Y-2437326D01*
%TO.C,U6*%
X67500619Y-24114095D02*
X68310142Y-24114095D01*
X68310142Y-24114095D02*
X68405380Y-24161714D01*
X68405380Y-24161714D02*
X68453000Y-24209333D01*
X68453000Y-24209333D02*
X68500619Y-24304571D01*
X68500619Y-24304571D02*
X68500619Y-24495047D01*
X68500619Y-24495047D02*
X68453000Y-24590285D01*
X68453000Y-24590285D02*
X68405380Y-24637904D01*
X68405380Y-24637904D02*
X68310142Y-24685523D01*
X68310142Y-24685523D02*
X67500619Y-24685523D01*
X67500619Y-25590285D02*
X67500619Y-25399809D01*
X67500619Y-25399809D02*
X67548238Y-25304571D01*
X67548238Y-25304571D02*
X67595857Y-25256952D01*
X67595857Y-25256952D02*
X67738714Y-25161714D01*
X67738714Y-25161714D02*
X67929190Y-25114095D01*
X67929190Y-25114095D02*
X68310142Y-25114095D01*
X68310142Y-25114095D02*
X68405380Y-25161714D01*
X68405380Y-25161714D02*
X68453000Y-25209333D01*
X68453000Y-25209333D02*
X68500619Y-25304571D01*
X68500619Y-25304571D02*
X68500619Y-25495047D01*
X68500619Y-25495047D02*
X68453000Y-25590285D01*
X68453000Y-25590285D02*
X68405380Y-25637904D01*
X68405380Y-25637904D02*
X68310142Y-25685523D01*
X68310142Y-25685523D02*
X68072047Y-25685523D01*
X68072047Y-25685523D02*
X67976809Y-25637904D01*
X67976809Y-25637904D02*
X67929190Y-25590285D01*
X67929190Y-25590285D02*
X67881571Y-25495047D01*
X67881571Y-25495047D02*
X67881571Y-25304571D01*
X67881571Y-25304571D02*
X67929190Y-25209333D01*
X67929190Y-25209333D02*
X67976809Y-25161714D01*
X67976809Y-25161714D02*
X68072047Y-25114095D01*
%TO.C,J2*%
X101164666Y42136620D02*
X101164666Y42850905D01*
X101164666Y42850905D02*
X101117047Y42993762D01*
X101117047Y42993762D02*
X101021809Y43089000D01*
X101021809Y43089000D02*
X100878952Y43136620D01*
X100878952Y43136620D02*
X100783714Y43136620D01*
X101593238Y42231858D02*
X101640857Y42184239D01*
X101640857Y42184239D02*
X101736095Y42136620D01*
X101736095Y42136620D02*
X101974190Y42136620D01*
X101974190Y42136620D02*
X102069428Y42184239D01*
X102069428Y42184239D02*
X102117047Y42231858D01*
X102117047Y42231858D02*
X102164666Y42327096D01*
X102164666Y42327096D02*
X102164666Y42422334D01*
X102164666Y42422334D02*
X102117047Y42565191D01*
X102117047Y42565191D02*
X101545619Y43136620D01*
X101545619Y43136620D02*
X102164666Y43136620D01*
%TO.C,C11*%
X82120857Y-22273380D02*
X82168476Y-22321000D01*
X82168476Y-22321000D02*
X82311333Y-22368619D01*
X82311333Y-22368619D02*
X82406571Y-22368619D01*
X82406571Y-22368619D02*
X82549428Y-22321000D01*
X82549428Y-22321000D02*
X82644666Y-22225761D01*
X82644666Y-22225761D02*
X82692285Y-22130523D01*
X82692285Y-22130523D02*
X82739904Y-21940047D01*
X82739904Y-21940047D02*
X82739904Y-21797190D01*
X82739904Y-21797190D02*
X82692285Y-21606714D01*
X82692285Y-21606714D02*
X82644666Y-21511476D01*
X82644666Y-21511476D02*
X82549428Y-21416238D01*
X82549428Y-21416238D02*
X82406571Y-21368619D01*
X82406571Y-21368619D02*
X82311333Y-21368619D01*
X82311333Y-21368619D02*
X82168476Y-21416238D01*
X82168476Y-21416238D02*
X82120857Y-21463857D01*
X81168476Y-22368619D02*
X81739904Y-22368619D01*
X81454190Y-22368619D02*
X81454190Y-21368619D01*
X81454190Y-21368619D02*
X81549428Y-21511476D01*
X81549428Y-21511476D02*
X81644666Y-21606714D01*
X81644666Y-21606714D02*
X81739904Y-21654333D01*
X80216095Y-22368619D02*
X80787523Y-22368619D01*
X80501809Y-22368619D02*
X80501809Y-21368619D01*
X80501809Y-21368619D02*
X80597047Y-21511476D01*
X80597047Y-21511476D02*
X80692285Y-21606714D01*
X80692285Y-21606714D02*
X80787523Y-21654333D01*
%TO.C,C45*%
X97645380Y34916858D02*
X97693000Y34964477D01*
X97693000Y34964477D02*
X97740619Y35107334D01*
X97740619Y35107334D02*
X97740619Y35202572D01*
X97740619Y35202572D02*
X97693000Y35345429D01*
X97693000Y35345429D02*
X97597761Y35440667D01*
X97597761Y35440667D02*
X97502523Y35488286D01*
X97502523Y35488286D02*
X97312047Y35535905D01*
X97312047Y35535905D02*
X97169190Y35535905D01*
X97169190Y35535905D02*
X96978714Y35488286D01*
X96978714Y35488286D02*
X96883476Y35440667D01*
X96883476Y35440667D02*
X96788238Y35345429D01*
X96788238Y35345429D02*
X96740619Y35202572D01*
X96740619Y35202572D02*
X96740619Y35107334D01*
X96740619Y35107334D02*
X96788238Y34964477D01*
X96788238Y34964477D02*
X96835857Y34916858D01*
X97073952Y34059715D02*
X97740619Y34059715D01*
X96693000Y34297810D02*
X97407285Y34535905D01*
X97407285Y34535905D02*
X97407285Y33916858D01*
X96740619Y33059715D02*
X96740619Y33535905D01*
X96740619Y33535905D02*
X97216809Y33583524D01*
X97216809Y33583524D02*
X97169190Y33535905D01*
X97169190Y33535905D02*
X97121571Y33440667D01*
X97121571Y33440667D02*
X97121571Y33202572D01*
X97121571Y33202572D02*
X97169190Y33107334D01*
X97169190Y33107334D02*
X97216809Y33059715D01*
X97216809Y33059715D02*
X97312047Y33012096D01*
X97312047Y33012096D02*
X97550142Y33012096D01*
X97550142Y33012096D02*
X97645380Y33059715D01*
X97645380Y33059715D02*
X97693000Y33107334D01*
X97693000Y33107334D02*
X97740619Y33202572D01*
X97740619Y33202572D02*
X97740619Y33440667D01*
X97740619Y33440667D02*
X97693000Y33535905D01*
X97693000Y33535905D02*
X97645380Y33583524D01*
%TO.C,R20*%
X67860857Y-16298619D02*
X68194190Y-15822428D01*
X68432285Y-16298619D02*
X68432285Y-15298619D01*
X68432285Y-15298619D02*
X68051333Y-15298619D01*
X68051333Y-15298619D02*
X67956095Y-15346238D01*
X67956095Y-15346238D02*
X67908476Y-15393857D01*
X67908476Y-15393857D02*
X67860857Y-15489095D01*
X67860857Y-15489095D02*
X67860857Y-15631952D01*
X67860857Y-15631952D02*
X67908476Y-15727190D01*
X67908476Y-15727190D02*
X67956095Y-15774809D01*
X67956095Y-15774809D02*
X68051333Y-15822428D01*
X68051333Y-15822428D02*
X68432285Y-15822428D01*
X67479904Y-15393857D02*
X67432285Y-15346238D01*
X67432285Y-15346238D02*
X67337047Y-15298619D01*
X67337047Y-15298619D02*
X67098952Y-15298619D01*
X67098952Y-15298619D02*
X67003714Y-15346238D01*
X67003714Y-15346238D02*
X66956095Y-15393857D01*
X66956095Y-15393857D02*
X66908476Y-15489095D01*
X66908476Y-15489095D02*
X66908476Y-15584333D01*
X66908476Y-15584333D02*
X66956095Y-15727190D01*
X66956095Y-15727190D02*
X67527523Y-16298619D01*
X67527523Y-16298619D02*
X66908476Y-16298619D01*
X66289428Y-15298619D02*
X66194190Y-15298619D01*
X66194190Y-15298619D02*
X66098952Y-15346238D01*
X66098952Y-15346238D02*
X66051333Y-15393857D01*
X66051333Y-15393857D02*
X66003714Y-15489095D01*
X66003714Y-15489095D02*
X65956095Y-15679571D01*
X65956095Y-15679571D02*
X65956095Y-15917666D01*
X65956095Y-15917666D02*
X66003714Y-16108142D01*
X66003714Y-16108142D02*
X66051333Y-16203380D01*
X66051333Y-16203380D02*
X66098952Y-16251000D01*
X66098952Y-16251000D02*
X66194190Y-16298619D01*
X66194190Y-16298619D02*
X66289428Y-16298619D01*
X66289428Y-16298619D02*
X66384666Y-16251000D01*
X66384666Y-16251000D02*
X66432285Y-16203380D01*
X66432285Y-16203380D02*
X66479904Y-16108142D01*
X66479904Y-16108142D02*
X66527523Y-15917666D01*
X66527523Y-15917666D02*
X66527523Y-15679571D01*
X66527523Y-15679571D02*
X66479904Y-15489095D01*
X66479904Y-15489095D02*
X66432285Y-15393857D01*
X66432285Y-15393857D02*
X66384666Y-15346238D01*
X66384666Y-15346238D02*
X66289428Y-15298619D01*
%TO.C,C19*%
X74640857Y-17123380D02*
X74688476Y-17171000D01*
X74688476Y-17171000D02*
X74831333Y-17218619D01*
X74831333Y-17218619D02*
X74926571Y-17218619D01*
X74926571Y-17218619D02*
X75069428Y-17171000D01*
X75069428Y-17171000D02*
X75164666Y-17075761D01*
X75164666Y-17075761D02*
X75212285Y-16980523D01*
X75212285Y-16980523D02*
X75259904Y-16790047D01*
X75259904Y-16790047D02*
X75259904Y-16647190D01*
X75259904Y-16647190D02*
X75212285Y-16456714D01*
X75212285Y-16456714D02*
X75164666Y-16361476D01*
X75164666Y-16361476D02*
X75069428Y-16266238D01*
X75069428Y-16266238D02*
X74926571Y-16218619D01*
X74926571Y-16218619D02*
X74831333Y-16218619D01*
X74831333Y-16218619D02*
X74688476Y-16266238D01*
X74688476Y-16266238D02*
X74640857Y-16313857D01*
X73688476Y-17218619D02*
X74259904Y-17218619D01*
X73974190Y-17218619D02*
X73974190Y-16218619D01*
X73974190Y-16218619D02*
X74069428Y-16361476D01*
X74069428Y-16361476D02*
X74164666Y-16456714D01*
X74164666Y-16456714D02*
X74259904Y-16504333D01*
X73212285Y-17218619D02*
X73021809Y-17218619D01*
X73021809Y-17218619D02*
X72926571Y-17171000D01*
X72926571Y-17171000D02*
X72878952Y-17123380D01*
X72878952Y-17123380D02*
X72783714Y-16980523D01*
X72783714Y-16980523D02*
X72736095Y-16790047D01*
X72736095Y-16790047D02*
X72736095Y-16409095D01*
X72736095Y-16409095D02*
X72783714Y-16313857D01*
X72783714Y-16313857D02*
X72831333Y-16266238D01*
X72831333Y-16266238D02*
X72926571Y-16218619D01*
X72926571Y-16218619D02*
X73117047Y-16218619D01*
X73117047Y-16218619D02*
X73212285Y-16266238D01*
X73212285Y-16266238D02*
X73259904Y-16313857D01*
X73259904Y-16313857D02*
X73307523Y-16409095D01*
X73307523Y-16409095D02*
X73307523Y-16647190D01*
X73307523Y-16647190D02*
X73259904Y-16742428D01*
X73259904Y-16742428D02*
X73212285Y-16790047D01*
X73212285Y-16790047D02*
X73117047Y-16837666D01*
X73117047Y-16837666D02*
X72926571Y-16837666D01*
X72926571Y-16837666D02*
X72831333Y-16790047D01*
X72831333Y-16790047D02*
X72783714Y-16742428D01*
X72783714Y-16742428D02*
X72736095Y-16647190D01*
%TO.C,R19*%
X74600857Y-15788619D02*
X74934190Y-15312428D01*
X75172285Y-15788619D02*
X75172285Y-14788619D01*
X75172285Y-14788619D02*
X74791333Y-14788619D01*
X74791333Y-14788619D02*
X74696095Y-14836238D01*
X74696095Y-14836238D02*
X74648476Y-14883857D01*
X74648476Y-14883857D02*
X74600857Y-14979095D01*
X74600857Y-14979095D02*
X74600857Y-15121952D01*
X74600857Y-15121952D02*
X74648476Y-15217190D01*
X74648476Y-15217190D02*
X74696095Y-15264809D01*
X74696095Y-15264809D02*
X74791333Y-15312428D01*
X74791333Y-15312428D02*
X75172285Y-15312428D01*
X73648476Y-15788619D02*
X74219904Y-15788619D01*
X73934190Y-15788619D02*
X73934190Y-14788619D01*
X73934190Y-14788619D02*
X74029428Y-14931476D01*
X74029428Y-14931476D02*
X74124666Y-15026714D01*
X74124666Y-15026714D02*
X74219904Y-15074333D01*
X73172285Y-15788619D02*
X72981809Y-15788619D01*
X72981809Y-15788619D02*
X72886571Y-15741000D01*
X72886571Y-15741000D02*
X72838952Y-15693380D01*
X72838952Y-15693380D02*
X72743714Y-15550523D01*
X72743714Y-15550523D02*
X72696095Y-15360047D01*
X72696095Y-15360047D02*
X72696095Y-14979095D01*
X72696095Y-14979095D02*
X72743714Y-14883857D01*
X72743714Y-14883857D02*
X72791333Y-14836238D01*
X72791333Y-14836238D02*
X72886571Y-14788619D01*
X72886571Y-14788619D02*
X73077047Y-14788619D01*
X73077047Y-14788619D02*
X73172285Y-14836238D01*
X73172285Y-14836238D02*
X73219904Y-14883857D01*
X73219904Y-14883857D02*
X73267523Y-14979095D01*
X73267523Y-14979095D02*
X73267523Y-15217190D01*
X73267523Y-15217190D02*
X73219904Y-15312428D01*
X73219904Y-15312428D02*
X73172285Y-15360047D01*
X73172285Y-15360047D02*
X73077047Y-15407666D01*
X73077047Y-15407666D02*
X72886571Y-15407666D01*
X72886571Y-15407666D02*
X72791333Y-15360047D01*
X72791333Y-15360047D02*
X72743714Y-15312428D01*
X72743714Y-15312428D02*
X72696095Y-15217190D01*
%TO.C,R16*%
X107080619Y38046858D02*
X106604428Y38380191D01*
X107080619Y38618286D02*
X106080619Y38618286D01*
X106080619Y38618286D02*
X106080619Y38237334D01*
X106080619Y38237334D02*
X106128238Y38142096D01*
X106128238Y38142096D02*
X106175857Y38094477D01*
X106175857Y38094477D02*
X106271095Y38046858D01*
X106271095Y38046858D02*
X106413952Y38046858D01*
X106413952Y38046858D02*
X106509190Y38094477D01*
X106509190Y38094477D02*
X106556809Y38142096D01*
X106556809Y38142096D02*
X106604428Y38237334D01*
X106604428Y38237334D02*
X106604428Y38618286D01*
X107080619Y37094477D02*
X107080619Y37665905D01*
X107080619Y37380191D02*
X106080619Y37380191D01*
X106080619Y37380191D02*
X106223476Y37475429D01*
X106223476Y37475429D02*
X106318714Y37570667D01*
X106318714Y37570667D02*
X106366333Y37665905D01*
X106080619Y36237334D02*
X106080619Y36427810D01*
X106080619Y36427810D02*
X106128238Y36523048D01*
X106128238Y36523048D02*
X106175857Y36570667D01*
X106175857Y36570667D02*
X106318714Y36665905D01*
X106318714Y36665905D02*
X106509190Y36713524D01*
X106509190Y36713524D02*
X106890142Y36713524D01*
X106890142Y36713524D02*
X106985380Y36665905D01*
X106985380Y36665905D02*
X107033000Y36618286D01*
X107033000Y36618286D02*
X107080619Y36523048D01*
X107080619Y36523048D02*
X107080619Y36332572D01*
X107080619Y36332572D02*
X107033000Y36237334D01*
X107033000Y36237334D02*
X106985380Y36189715D01*
X106985380Y36189715D02*
X106890142Y36142096D01*
X106890142Y36142096D02*
X106652047Y36142096D01*
X106652047Y36142096D02*
X106556809Y36189715D01*
X106556809Y36189715D02*
X106509190Y36237334D01*
X106509190Y36237334D02*
X106461571Y36332572D01*
X106461571Y36332572D02*
X106461571Y36523048D01*
X106461571Y36523048D02*
X106509190Y36618286D01*
X106509190Y36618286D02*
X106556809Y36665905D01*
X106556809Y36665905D02*
X106652047Y36713524D01*
%TO.C,D8*%
X100750619Y27692095D02*
X99750619Y27692095D01*
X99750619Y27692095D02*
X99750619Y27454000D01*
X99750619Y27454000D02*
X99798238Y27311143D01*
X99798238Y27311143D02*
X99893476Y27215905D01*
X99893476Y27215905D02*
X99988714Y27168286D01*
X99988714Y27168286D02*
X100179190Y27120667D01*
X100179190Y27120667D02*
X100322047Y27120667D01*
X100322047Y27120667D02*
X100512523Y27168286D01*
X100512523Y27168286D02*
X100607761Y27215905D01*
X100607761Y27215905D02*
X100703000Y27311143D01*
X100703000Y27311143D02*
X100750619Y27454000D01*
X100750619Y27454000D02*
X100750619Y27692095D01*
X100179190Y26549238D02*
X100131571Y26644476D01*
X100131571Y26644476D02*
X100083952Y26692095D01*
X100083952Y26692095D02*
X99988714Y26739714D01*
X99988714Y26739714D02*
X99941095Y26739714D01*
X99941095Y26739714D02*
X99845857Y26692095D01*
X99845857Y26692095D02*
X99798238Y26644476D01*
X99798238Y26644476D02*
X99750619Y26549238D01*
X99750619Y26549238D02*
X99750619Y26358762D01*
X99750619Y26358762D02*
X99798238Y26263524D01*
X99798238Y26263524D02*
X99845857Y26215905D01*
X99845857Y26215905D02*
X99941095Y26168286D01*
X99941095Y26168286D02*
X99988714Y26168286D01*
X99988714Y26168286D02*
X100083952Y26215905D01*
X100083952Y26215905D02*
X100131571Y26263524D01*
X100131571Y26263524D02*
X100179190Y26358762D01*
X100179190Y26358762D02*
X100179190Y26549238D01*
X100179190Y26549238D02*
X100226809Y26644476D01*
X100226809Y26644476D02*
X100274428Y26692095D01*
X100274428Y26692095D02*
X100369666Y26739714D01*
X100369666Y26739714D02*
X100560142Y26739714D01*
X100560142Y26739714D02*
X100655380Y26692095D01*
X100655380Y26692095D02*
X100703000Y26644476D01*
X100703000Y26644476D02*
X100750619Y26549238D01*
X100750619Y26549238D02*
X100750619Y26358762D01*
X100750619Y26358762D02*
X100703000Y26263524D01*
X100703000Y26263524D02*
X100655380Y26215905D01*
X100655380Y26215905D02*
X100560142Y26168286D01*
X100560142Y26168286D02*
X100369666Y26168286D01*
X100369666Y26168286D02*
X100274428Y26215905D01*
X100274428Y26215905D02*
X100226809Y26263524D01*
X100226809Y26263524D02*
X100179190Y26358762D01*
%TO.C,R22*%
X121327179Y-7453992D02*
X120850988Y-7120659D01*
X121327179Y-6882564D02*
X120327179Y-6882564D01*
X120327179Y-6882564D02*
X120327179Y-7263516D01*
X120327179Y-7263516D02*
X120374798Y-7358754D01*
X120374798Y-7358754D02*
X120422417Y-7406373D01*
X120422417Y-7406373D02*
X120517655Y-7453992D01*
X120517655Y-7453992D02*
X120660512Y-7453992D01*
X120660512Y-7453992D02*
X120755750Y-7406373D01*
X120755750Y-7406373D02*
X120803369Y-7358754D01*
X120803369Y-7358754D02*
X120850988Y-7263516D01*
X120850988Y-7263516D02*
X120850988Y-6882564D01*
X120422417Y-7834945D02*
X120374798Y-7882564D01*
X120374798Y-7882564D02*
X120327179Y-7977802D01*
X120327179Y-7977802D02*
X120327179Y-8215897D01*
X120327179Y-8215897D02*
X120374798Y-8311135D01*
X120374798Y-8311135D02*
X120422417Y-8358754D01*
X120422417Y-8358754D02*
X120517655Y-8406373D01*
X120517655Y-8406373D02*
X120612893Y-8406373D01*
X120612893Y-8406373D02*
X120755750Y-8358754D01*
X120755750Y-8358754D02*
X121327179Y-7787326D01*
X121327179Y-7787326D02*
X121327179Y-8406373D01*
X120422417Y-8787326D02*
X120374798Y-8834945D01*
X120374798Y-8834945D02*
X120327179Y-8930183D01*
X120327179Y-8930183D02*
X120327179Y-9168278D01*
X120327179Y-9168278D02*
X120374798Y-9263516D01*
X120374798Y-9263516D02*
X120422417Y-9311135D01*
X120422417Y-9311135D02*
X120517655Y-9358754D01*
X120517655Y-9358754D02*
X120612893Y-9358754D01*
X120612893Y-9358754D02*
X120755750Y-9311135D01*
X120755750Y-9311135D02*
X121327179Y-8739707D01*
X121327179Y-8739707D02*
X121327179Y-9358754D01*
%TO.C,R18*%
X81090619Y-15403142D02*
X80614428Y-15069809D01*
X81090619Y-14831714D02*
X80090619Y-14831714D01*
X80090619Y-14831714D02*
X80090619Y-15212666D01*
X80090619Y-15212666D02*
X80138238Y-15307904D01*
X80138238Y-15307904D02*
X80185857Y-15355523D01*
X80185857Y-15355523D02*
X80281095Y-15403142D01*
X80281095Y-15403142D02*
X80423952Y-15403142D01*
X80423952Y-15403142D02*
X80519190Y-15355523D01*
X80519190Y-15355523D02*
X80566809Y-15307904D01*
X80566809Y-15307904D02*
X80614428Y-15212666D01*
X80614428Y-15212666D02*
X80614428Y-14831714D01*
X81090619Y-16355523D02*
X81090619Y-15784095D01*
X81090619Y-16069809D02*
X80090619Y-16069809D01*
X80090619Y-16069809D02*
X80233476Y-15974571D01*
X80233476Y-15974571D02*
X80328714Y-15879333D01*
X80328714Y-15879333D02*
X80376333Y-15784095D01*
X80519190Y-16926952D02*
X80471571Y-16831714D01*
X80471571Y-16831714D02*
X80423952Y-16784095D01*
X80423952Y-16784095D02*
X80328714Y-16736476D01*
X80328714Y-16736476D02*
X80281095Y-16736476D01*
X80281095Y-16736476D02*
X80185857Y-16784095D01*
X80185857Y-16784095D02*
X80138238Y-16831714D01*
X80138238Y-16831714D02*
X80090619Y-16926952D01*
X80090619Y-16926952D02*
X80090619Y-17117428D01*
X80090619Y-17117428D02*
X80138238Y-17212666D01*
X80138238Y-17212666D02*
X80185857Y-17260285D01*
X80185857Y-17260285D02*
X80281095Y-17307904D01*
X80281095Y-17307904D02*
X80328714Y-17307904D01*
X80328714Y-17307904D02*
X80423952Y-17260285D01*
X80423952Y-17260285D02*
X80471571Y-17212666D01*
X80471571Y-17212666D02*
X80519190Y-17117428D01*
X80519190Y-17117428D02*
X80519190Y-16926952D01*
X80519190Y-16926952D02*
X80566809Y-16831714D01*
X80566809Y-16831714D02*
X80614428Y-16784095D01*
X80614428Y-16784095D02*
X80709666Y-16736476D01*
X80709666Y-16736476D02*
X80900142Y-16736476D01*
X80900142Y-16736476D02*
X80995380Y-16784095D01*
X80995380Y-16784095D02*
X81043000Y-16831714D01*
X81043000Y-16831714D02*
X81090619Y-16926952D01*
X81090619Y-16926952D02*
X81090619Y-17117428D01*
X81090619Y-17117428D02*
X81043000Y-17212666D01*
X81043000Y-17212666D02*
X80995380Y-17260285D01*
X80995380Y-17260285D02*
X80900142Y-17307904D01*
X80900142Y-17307904D02*
X80709666Y-17307904D01*
X80709666Y-17307904D02*
X80614428Y-17260285D01*
X80614428Y-17260285D02*
X80566809Y-17212666D01*
X80566809Y-17212666D02*
X80519190Y-17117428D01*
%TO.C,Q4*%
X68055857Y-12770761D02*
X68008238Y-12675523D01*
X68008238Y-12675523D02*
X67913000Y-12580285D01*
X67913000Y-12580285D02*
X67770142Y-12437428D01*
X67770142Y-12437428D02*
X67722523Y-12342190D01*
X67722523Y-12342190D02*
X67722523Y-12246952D01*
X67960619Y-12294571D02*
X67913000Y-12199333D01*
X67913000Y-12199333D02*
X67817761Y-12104095D01*
X67817761Y-12104095D02*
X67627285Y-12056476D01*
X67627285Y-12056476D02*
X67293952Y-12056476D01*
X67293952Y-12056476D02*
X67103476Y-12104095D01*
X67103476Y-12104095D02*
X67008238Y-12199333D01*
X67008238Y-12199333D02*
X66960619Y-12294571D01*
X66960619Y-12294571D02*
X66960619Y-12485047D01*
X66960619Y-12485047D02*
X67008238Y-12580285D01*
X67008238Y-12580285D02*
X67103476Y-12675523D01*
X67103476Y-12675523D02*
X67293952Y-12723142D01*
X67293952Y-12723142D02*
X67627285Y-12723142D01*
X67627285Y-12723142D02*
X67817761Y-12675523D01*
X67817761Y-12675523D02*
X67913000Y-12580285D01*
X67913000Y-12580285D02*
X67960619Y-12485047D01*
X67960619Y-12485047D02*
X67960619Y-12294571D01*
X67293952Y-13580285D02*
X67960619Y-13580285D01*
X66913000Y-13342190D02*
X67627285Y-13104095D01*
X67627285Y-13104095D02*
X67627285Y-13723142D01*
%TO.C,D6*%
X78271094Y-11714619D02*
X78271094Y-10714619D01*
X78271094Y-10714619D02*
X78032999Y-10714619D01*
X78032999Y-10714619D02*
X77890142Y-10762238D01*
X77890142Y-10762238D02*
X77794904Y-10857476D01*
X77794904Y-10857476D02*
X77747285Y-10952714D01*
X77747285Y-10952714D02*
X77699666Y-11143190D01*
X77699666Y-11143190D02*
X77699666Y-11286047D01*
X77699666Y-11286047D02*
X77747285Y-11476523D01*
X77747285Y-11476523D02*
X77794904Y-11571761D01*
X77794904Y-11571761D02*
X77890142Y-11667000D01*
X77890142Y-11667000D02*
X78032999Y-11714619D01*
X78032999Y-11714619D02*
X78271094Y-11714619D01*
X76842523Y-10714619D02*
X77032999Y-10714619D01*
X77032999Y-10714619D02*
X77128237Y-10762238D01*
X77128237Y-10762238D02*
X77175856Y-10809857D01*
X77175856Y-10809857D02*
X77271094Y-10952714D01*
X77271094Y-10952714D02*
X77318713Y-11143190D01*
X77318713Y-11143190D02*
X77318713Y-11524142D01*
X77318713Y-11524142D02*
X77271094Y-11619380D01*
X77271094Y-11619380D02*
X77223475Y-11667000D01*
X77223475Y-11667000D02*
X77128237Y-11714619D01*
X77128237Y-11714619D02*
X76937761Y-11714619D01*
X76937761Y-11714619D02*
X76842523Y-11667000D01*
X76842523Y-11667000D02*
X76794904Y-11619380D01*
X76794904Y-11619380D02*
X76747285Y-11524142D01*
X76747285Y-11524142D02*
X76747285Y-11286047D01*
X76747285Y-11286047D02*
X76794904Y-11190809D01*
X76794904Y-11190809D02*
X76842523Y-11143190D01*
X76842523Y-11143190D02*
X76937761Y-11095571D01*
X76937761Y-11095571D02*
X77128237Y-11095571D01*
X77128237Y-11095571D02*
X77223475Y-11143190D01*
X77223475Y-11143190D02*
X77271094Y-11190809D01*
X77271094Y-11190809D02*
X77318713Y-11286047D01*
%TO.C,C44*%
X99465380Y34936858D02*
X99513000Y34984477D01*
X99513000Y34984477D02*
X99560619Y35127334D01*
X99560619Y35127334D02*
X99560619Y35222572D01*
X99560619Y35222572D02*
X99513000Y35365429D01*
X99513000Y35365429D02*
X99417761Y35460667D01*
X99417761Y35460667D02*
X99322523Y35508286D01*
X99322523Y35508286D02*
X99132047Y35555905D01*
X99132047Y35555905D02*
X98989190Y35555905D01*
X98989190Y35555905D02*
X98798714Y35508286D01*
X98798714Y35508286D02*
X98703476Y35460667D01*
X98703476Y35460667D02*
X98608238Y35365429D01*
X98608238Y35365429D02*
X98560619Y35222572D01*
X98560619Y35222572D02*
X98560619Y35127334D01*
X98560619Y35127334D02*
X98608238Y34984477D01*
X98608238Y34984477D02*
X98655857Y34936858D01*
X98893952Y34079715D02*
X99560619Y34079715D01*
X98513000Y34317810D02*
X99227285Y34555905D01*
X99227285Y34555905D02*
X99227285Y33936858D01*
X98893952Y33127334D02*
X99560619Y33127334D01*
X98513000Y33365429D02*
X99227285Y33603524D01*
X99227285Y33603524D02*
X99227285Y32984477D01*
%TO.C,C9*%
X66154666Y-19453380D02*
X66202285Y-19501000D01*
X66202285Y-19501000D02*
X66345142Y-19548619D01*
X66345142Y-19548619D02*
X66440380Y-19548619D01*
X66440380Y-19548619D02*
X66583237Y-19501000D01*
X66583237Y-19501000D02*
X66678475Y-19405761D01*
X66678475Y-19405761D02*
X66726094Y-19310523D01*
X66726094Y-19310523D02*
X66773713Y-19120047D01*
X66773713Y-19120047D02*
X66773713Y-18977190D01*
X66773713Y-18977190D02*
X66726094Y-18786714D01*
X66726094Y-18786714D02*
X66678475Y-18691476D01*
X66678475Y-18691476D02*
X66583237Y-18596238D01*
X66583237Y-18596238D02*
X66440380Y-18548619D01*
X66440380Y-18548619D02*
X66345142Y-18548619D01*
X66345142Y-18548619D02*
X66202285Y-18596238D01*
X66202285Y-18596238D02*
X66154666Y-18643857D01*
X65678475Y-19548619D02*
X65487999Y-19548619D01*
X65487999Y-19548619D02*
X65392761Y-19501000D01*
X65392761Y-19501000D02*
X65345142Y-19453380D01*
X65345142Y-19453380D02*
X65249904Y-19310523D01*
X65249904Y-19310523D02*
X65202285Y-19120047D01*
X65202285Y-19120047D02*
X65202285Y-18739095D01*
X65202285Y-18739095D02*
X65249904Y-18643857D01*
X65249904Y-18643857D02*
X65297523Y-18596238D01*
X65297523Y-18596238D02*
X65392761Y-18548619D01*
X65392761Y-18548619D02*
X65583237Y-18548619D01*
X65583237Y-18548619D02*
X65678475Y-18596238D01*
X65678475Y-18596238D02*
X65726094Y-18643857D01*
X65726094Y-18643857D02*
X65773713Y-18739095D01*
X65773713Y-18739095D02*
X65773713Y-18977190D01*
X65773713Y-18977190D02*
X65726094Y-19072428D01*
X65726094Y-19072428D02*
X65678475Y-19120047D01*
X65678475Y-19120047D02*
X65583237Y-19167666D01*
X65583237Y-19167666D02*
X65392761Y-19167666D01*
X65392761Y-19167666D02*
X65297523Y-19120047D01*
X65297523Y-19120047D02*
X65249904Y-19072428D01*
X65249904Y-19072428D02*
X65202285Y-18977190D01*
%TO.C,U4*%
X94823380Y12517246D02*
X94013857Y12517246D01*
X94013857Y12517246D02*
X93918619Y12564865D01*
X93918619Y12564865D02*
X93871000Y12612484D01*
X93871000Y12612484D02*
X93823380Y12707722D01*
X93823380Y12707722D02*
X93823380Y12898198D01*
X93823380Y12898198D02*
X93871000Y12993436D01*
X93871000Y12993436D02*
X93918619Y13041055D01*
X93918619Y13041055D02*
X94013857Y13088674D01*
X94013857Y13088674D02*
X94823380Y13088674D01*
X94490047Y13993436D02*
X93823380Y13993436D01*
X94871000Y13755341D02*
X94156714Y13517246D01*
X94156714Y13517246D02*
X94156714Y14136293D01*
X41369080Y22276246D02*
X40559557Y22276246D01*
X40559557Y22276246D02*
X40464319Y22323865D01*
X40464319Y22323865D02*
X40416700Y22371484D01*
X40416700Y22371484D02*
X40369080Y22466722D01*
X40369080Y22466722D02*
X40369080Y22657198D01*
X40369080Y22657198D02*
X40416700Y22752436D01*
X40416700Y22752436D02*
X40464319Y22800055D01*
X40464319Y22800055D02*
X40559557Y22847674D01*
X40559557Y22847674D02*
X41369080Y22847674D01*
X40416700Y23276246D02*
X40369080Y23419103D01*
X40369080Y23419103D02*
X40369080Y23657198D01*
X40369080Y23657198D02*
X40416700Y23752436D01*
X40416700Y23752436D02*
X40464319Y23800055D01*
X40464319Y23800055D02*
X40559557Y23847674D01*
X40559557Y23847674D02*
X40654795Y23847674D01*
X40654795Y23847674D02*
X40750033Y23800055D01*
X40750033Y23800055D02*
X40797652Y23752436D01*
X40797652Y23752436D02*
X40845271Y23657198D01*
X40845271Y23657198D02*
X40892890Y23466722D01*
X40892890Y23466722D02*
X40940509Y23371484D01*
X40940509Y23371484D02*
X40988128Y23323865D01*
X40988128Y23323865D02*
X41083366Y23276246D01*
X41083366Y23276246D02*
X41178604Y23276246D01*
X41178604Y23276246D02*
X41273842Y23323865D01*
X41273842Y23323865D02*
X41321461Y23371484D01*
X41321461Y23371484D02*
X41369080Y23466722D01*
X41369080Y23466722D02*
X41369080Y23704817D01*
X41369080Y23704817D02*
X41321461Y23847674D01*
X40892890Y24609579D02*
X40845271Y24752436D01*
X40845271Y24752436D02*
X40797652Y24800055D01*
X40797652Y24800055D02*
X40702414Y24847674D01*
X40702414Y24847674D02*
X40559557Y24847674D01*
X40559557Y24847674D02*
X40464319Y24800055D01*
X40464319Y24800055D02*
X40416700Y24752436D01*
X40416700Y24752436D02*
X40369080Y24657198D01*
X40369080Y24657198D02*
X40369080Y24276246D01*
X40369080Y24276246D02*
X41369080Y24276246D01*
X41369080Y24276246D02*
X41369080Y24609579D01*
X41369080Y24609579D02*
X41321461Y24704817D01*
X41321461Y24704817D02*
X41273842Y24752436D01*
X41273842Y24752436D02*
X41178604Y24800055D01*
X41178604Y24800055D02*
X41083366Y24800055D01*
X41083366Y24800055D02*
X40988128Y24752436D01*
X40988128Y24752436D02*
X40940509Y24704817D01*
X40940509Y24704817D02*
X40892890Y24609579D01*
X40892890Y24609579D02*
X40892890Y24276246D01*
%TO.C,R23*%
X112705179Y2672008D02*
X112228988Y3005341D01*
X112705179Y3243436D02*
X111705179Y3243436D01*
X111705179Y3243436D02*
X111705179Y2862484D01*
X111705179Y2862484D02*
X111752798Y2767246D01*
X111752798Y2767246D02*
X111800417Y2719627D01*
X111800417Y2719627D02*
X111895655Y2672008D01*
X111895655Y2672008D02*
X112038512Y2672008D01*
X112038512Y2672008D02*
X112133750Y2719627D01*
X112133750Y2719627D02*
X112181369Y2767246D01*
X112181369Y2767246D02*
X112228988Y2862484D01*
X112228988Y2862484D02*
X112228988Y3243436D01*
X111800417Y2291055D02*
X111752798Y2243436D01*
X111752798Y2243436D02*
X111705179Y2148198D01*
X111705179Y2148198D02*
X111705179Y1910103D01*
X111705179Y1910103D02*
X111752798Y1814865D01*
X111752798Y1814865D02*
X111800417Y1767246D01*
X111800417Y1767246D02*
X111895655Y1719627D01*
X111895655Y1719627D02*
X111990893Y1719627D01*
X111990893Y1719627D02*
X112133750Y1767246D01*
X112133750Y1767246D02*
X112705179Y2338674D01*
X112705179Y2338674D02*
X112705179Y1719627D01*
X111705179Y1386293D02*
X111705179Y767246D01*
X111705179Y767246D02*
X112086131Y1100579D01*
X112086131Y1100579D02*
X112086131Y957722D01*
X112086131Y957722D02*
X112133750Y862484D01*
X112133750Y862484D02*
X112181369Y814865D01*
X112181369Y814865D02*
X112276607Y767246D01*
X112276607Y767246D02*
X112514702Y767246D01*
X112514702Y767246D02*
X112609940Y814865D01*
X112609940Y814865D02*
X112657560Y862484D01*
X112657560Y862484D02*
X112705179Y957722D01*
X112705179Y957722D02*
X112705179Y1243436D01*
X112705179Y1243436D02*
X112657560Y1338674D01*
X112657560Y1338674D02*
X112609940Y1386293D01*
%TO.C,C22*%
X111773917Y-1196230D02*
X111821536Y-1243850D01*
X111821536Y-1243850D02*
X111964393Y-1291469D01*
X111964393Y-1291469D02*
X112059631Y-1291469D01*
X112059631Y-1291469D02*
X112202488Y-1243850D01*
X112202488Y-1243850D02*
X112297726Y-1148611D01*
X112297726Y-1148611D02*
X112345345Y-1053373D01*
X112345345Y-1053373D02*
X112392964Y-862897D01*
X112392964Y-862897D02*
X112392964Y-720040D01*
X112392964Y-720040D02*
X112345345Y-529564D01*
X112345345Y-529564D02*
X112297726Y-434326D01*
X112297726Y-434326D02*
X112202488Y-339088D01*
X112202488Y-339088D02*
X112059631Y-291469D01*
X112059631Y-291469D02*
X111964393Y-291469D01*
X111964393Y-291469D02*
X111821536Y-339088D01*
X111821536Y-339088D02*
X111773917Y-386707D01*
X111392964Y-386707D02*
X111345345Y-339088D01*
X111345345Y-339088D02*
X111250107Y-291469D01*
X111250107Y-291469D02*
X111012012Y-291469D01*
X111012012Y-291469D02*
X110916774Y-339088D01*
X110916774Y-339088D02*
X110869155Y-386707D01*
X110869155Y-386707D02*
X110821536Y-481945D01*
X110821536Y-481945D02*
X110821536Y-577183D01*
X110821536Y-577183D02*
X110869155Y-720040D01*
X110869155Y-720040D02*
X111440583Y-1291469D01*
X111440583Y-1291469D02*
X110821536Y-1291469D01*
X110440583Y-386707D02*
X110392964Y-339088D01*
X110392964Y-339088D02*
X110297726Y-291469D01*
X110297726Y-291469D02*
X110059631Y-291469D01*
X110059631Y-291469D02*
X109964393Y-339088D01*
X109964393Y-339088D02*
X109916774Y-386707D01*
X109916774Y-386707D02*
X109869155Y-481945D01*
X109869155Y-481945D02*
X109869155Y-577183D01*
X109869155Y-577183D02*
X109916774Y-720040D01*
X109916774Y-720040D02*
X110488202Y-1291469D01*
X110488202Y-1291469D02*
X109869155Y-1291469D01*
%TO.C,C20*%
X113450857Y-11973380D02*
X113498476Y-12021000D01*
X113498476Y-12021000D02*
X113641333Y-12068619D01*
X113641333Y-12068619D02*
X113736571Y-12068619D01*
X113736571Y-12068619D02*
X113879428Y-12021000D01*
X113879428Y-12021000D02*
X113974666Y-11925761D01*
X113974666Y-11925761D02*
X114022285Y-11830523D01*
X114022285Y-11830523D02*
X114069904Y-11640047D01*
X114069904Y-11640047D02*
X114069904Y-11497190D01*
X114069904Y-11497190D02*
X114022285Y-11306714D01*
X114022285Y-11306714D02*
X113974666Y-11211476D01*
X113974666Y-11211476D02*
X113879428Y-11116238D01*
X113879428Y-11116238D02*
X113736571Y-11068619D01*
X113736571Y-11068619D02*
X113641333Y-11068619D01*
X113641333Y-11068619D02*
X113498476Y-11116238D01*
X113498476Y-11116238D02*
X113450857Y-11163857D01*
X113069904Y-11163857D02*
X113022285Y-11116238D01*
X113022285Y-11116238D02*
X112927047Y-11068619D01*
X112927047Y-11068619D02*
X112688952Y-11068619D01*
X112688952Y-11068619D02*
X112593714Y-11116238D01*
X112593714Y-11116238D02*
X112546095Y-11163857D01*
X112546095Y-11163857D02*
X112498476Y-11259095D01*
X112498476Y-11259095D02*
X112498476Y-11354333D01*
X112498476Y-11354333D02*
X112546095Y-11497190D01*
X112546095Y-11497190D02*
X113117523Y-12068619D01*
X113117523Y-12068619D02*
X112498476Y-12068619D01*
X111879428Y-11068619D02*
X111784190Y-11068619D01*
X111784190Y-11068619D02*
X111688952Y-11116238D01*
X111688952Y-11116238D02*
X111641333Y-11163857D01*
X111641333Y-11163857D02*
X111593714Y-11259095D01*
X111593714Y-11259095D02*
X111546095Y-11449571D01*
X111546095Y-11449571D02*
X111546095Y-11687666D01*
X111546095Y-11687666D02*
X111593714Y-11878142D01*
X111593714Y-11878142D02*
X111641333Y-11973380D01*
X111641333Y-11973380D02*
X111688952Y-12021000D01*
X111688952Y-12021000D02*
X111784190Y-12068619D01*
X111784190Y-12068619D02*
X111879428Y-12068619D01*
X111879428Y-12068619D02*
X111974666Y-12021000D01*
X111974666Y-12021000D02*
X112022285Y-11973380D01*
X112022285Y-11973380D02*
X112069904Y-11878142D01*
X112069904Y-11878142D02*
X112117523Y-11687666D01*
X112117523Y-11687666D02*
X112117523Y-11449571D01*
X112117523Y-11449571D02*
X112069904Y-11259095D01*
X112069904Y-11259095D02*
X112022285Y-11163857D01*
X112022285Y-11163857D02*
X111974666Y-11116238D01*
X111974666Y-11116238D02*
X111879428Y-11068619D01*
%TO.C,BT1*%
X101799190Y-8301714D02*
X101751571Y-8158857D01*
X101751571Y-8158857D02*
X101703952Y-8111238D01*
X101703952Y-8111238D02*
X101608714Y-8063619D01*
X101608714Y-8063619D02*
X101465857Y-8063619D01*
X101465857Y-8063619D02*
X101370619Y-8111238D01*
X101370619Y-8111238D02*
X101323000Y-8158857D01*
X101323000Y-8158857D02*
X101275380Y-8254095D01*
X101275380Y-8254095D02*
X101275380Y-8635047D01*
X101275380Y-8635047D02*
X102275380Y-8635047D01*
X102275380Y-8635047D02*
X102275380Y-8301714D01*
X102275380Y-8301714D02*
X102227761Y-8206476D01*
X102227761Y-8206476D02*
X102180142Y-8158857D01*
X102180142Y-8158857D02*
X102084904Y-8111238D01*
X102084904Y-8111238D02*
X101989666Y-8111238D01*
X101989666Y-8111238D02*
X101894428Y-8158857D01*
X101894428Y-8158857D02*
X101846809Y-8206476D01*
X101846809Y-8206476D02*
X101799190Y-8301714D01*
X101799190Y-8301714D02*
X101799190Y-8635047D01*
X102275380Y-7777904D02*
X102275380Y-7206476D01*
X101275380Y-7492190D02*
X102275380Y-7492190D01*
X101275380Y-6349333D02*
X101275380Y-6920761D01*
X101275380Y-6635047D02*
X102275380Y-6635047D01*
X102275380Y-6635047D02*
X102132523Y-6730285D01*
X102132523Y-6730285D02*
X102037285Y-6825523D01*
X102037285Y-6825523D02*
X101989666Y-6920761D01*
D11*
X64385761Y-2564945D02*
X64385761Y-3707802D01*
X64385761Y-3136374D02*
X66385761Y-3136374D01*
X66385761Y-3136374D02*
X66100047Y-3326850D01*
X66100047Y-3326850D02*
X65909571Y-3517326D01*
X65909571Y-3517326D02*
X65814333Y-3707802D01*
X65528619Y-1422088D02*
X65623857Y-1612564D01*
X65623857Y-1612564D02*
X65719095Y-1707802D01*
X65719095Y-1707802D02*
X65909571Y-1803040D01*
X65909571Y-1803040D02*
X66004809Y-1803040D01*
X66004809Y-1803040D02*
X66195285Y-1707802D01*
X66195285Y-1707802D02*
X66290523Y-1612564D01*
X66290523Y-1612564D02*
X66385761Y-1422088D01*
X66385761Y-1422088D02*
X66385761Y-1041135D01*
X66385761Y-1041135D02*
X66290523Y-850659D01*
X66290523Y-850659D02*
X66195285Y-755421D01*
X66195285Y-755421D02*
X66004809Y-660183D01*
X66004809Y-660183D02*
X65909571Y-660183D01*
X65909571Y-660183D02*
X65719095Y-755421D01*
X65719095Y-755421D02*
X65623857Y-850659D01*
X65623857Y-850659D02*
X65528619Y-1041135D01*
X65528619Y-1041135D02*
X65528619Y-1422088D01*
X65528619Y-1422088D02*
X65433380Y-1612564D01*
X65433380Y-1612564D02*
X65338142Y-1707802D01*
X65338142Y-1707802D02*
X65147666Y-1803040D01*
X65147666Y-1803040D02*
X64766714Y-1803040D01*
X64766714Y-1803040D02*
X64576238Y-1707802D01*
X64576238Y-1707802D02*
X64481000Y-1612564D01*
X64481000Y-1612564D02*
X64385761Y-1422088D01*
X64385761Y-1422088D02*
X64385761Y-1041135D01*
X64385761Y-1041135D02*
X64481000Y-850659D01*
X64481000Y-850659D02*
X64576238Y-755421D01*
X64576238Y-755421D02*
X64766714Y-660183D01*
X64766714Y-660183D02*
X65147666Y-660183D01*
X65147666Y-660183D02*
X65338142Y-755421D01*
X65338142Y-755421D02*
X65433380Y-850659D01*
X65433380Y-850659D02*
X65528619Y-1041135D01*
X66385761Y1054103D02*
X66385761Y673150D01*
X66385761Y673150D02*
X66290523Y482674D01*
X66290523Y482674D02*
X66195285Y387436D01*
X66195285Y387436D02*
X65909571Y196960D01*
X65909571Y196960D02*
X65528619Y101722D01*
X65528619Y101722D02*
X64766714Y101722D01*
X64766714Y101722D02*
X64576238Y196960D01*
X64576238Y196960D02*
X64481000Y292198D01*
X64481000Y292198D02*
X64385761Y482674D01*
X64385761Y482674D02*
X64385761Y863627D01*
X64385761Y863627D02*
X64481000Y1054103D01*
X64481000Y1054103D02*
X64576238Y1149341D01*
X64576238Y1149341D02*
X64766714Y1244579D01*
X64766714Y1244579D02*
X65242904Y1244579D01*
X65242904Y1244579D02*
X65433380Y1149341D01*
X65433380Y1149341D02*
X65528619Y1054103D01*
X65528619Y1054103D02*
X65623857Y863627D01*
X65623857Y863627D02*
X65623857Y482674D01*
X65623857Y482674D02*
X65528619Y292198D01*
X65528619Y292198D02*
X65433380Y196960D01*
X65433380Y196960D02*
X65242904Y101722D01*
X66385761Y3054103D02*
X66385761Y2101722D01*
X66385761Y2101722D02*
X65433380Y2006484D01*
X65433380Y2006484D02*
X65528619Y2101722D01*
X65528619Y2101722D02*
X65623857Y2292198D01*
X65623857Y2292198D02*
X65623857Y2768389D01*
X65623857Y2768389D02*
X65528619Y2958865D01*
X65528619Y2958865D02*
X65433380Y3054103D01*
X65433380Y3054103D02*
X65242904Y3149341D01*
X65242904Y3149341D02*
X64766714Y3149341D01*
X64766714Y3149341D02*
X64576238Y3054103D01*
X64576238Y3054103D02*
X64481000Y2958865D01*
X64481000Y2958865D02*
X64385761Y2768389D01*
X64385761Y2768389D02*
X64385761Y2292198D01*
X64385761Y2292198D02*
X64481000Y2101722D01*
X64481000Y2101722D02*
X64576238Y2006484D01*
X66385761Y4387436D02*
X66385761Y4577913D01*
X66385761Y4577913D02*
X66290523Y4768389D01*
X66290523Y4768389D02*
X66195285Y4863627D01*
X66195285Y4863627D02*
X66004809Y4958865D01*
X66004809Y4958865D02*
X65623857Y5054103D01*
X65623857Y5054103D02*
X65147666Y5054103D01*
X65147666Y5054103D02*
X64766714Y4958865D01*
X64766714Y4958865D02*
X64576238Y4863627D01*
X64576238Y4863627D02*
X64481000Y4768389D01*
X64481000Y4768389D02*
X64385761Y4577913D01*
X64385761Y4577913D02*
X64385761Y4387436D01*
X64385761Y4387436D02*
X64481000Y4196960D01*
X64481000Y4196960D02*
X64576238Y4101722D01*
X64576238Y4101722D02*
X64766714Y4006484D01*
X64766714Y4006484D02*
X65147666Y3911246D01*
X65147666Y3911246D02*
X65623857Y3911246D01*
X65623857Y3911246D02*
X66004809Y4006484D01*
X66004809Y4006484D02*
X66195285Y4101722D01*
X66195285Y4101722D02*
X66290523Y4196960D01*
X66290523Y4196960D02*
X66385761Y4387436D01*
D10*
X30876666Y-88754D02*
X30876666Y1435055D01*
X99202666Y-88754D02*
X99202666Y1435055D01*
X98440761Y673151D02*
X99964571Y673151D01*
%TO.C,U8*%
X115699904Y-7938619D02*
X115699904Y-8748142D01*
X115699904Y-8748142D02*
X115652285Y-8843380D01*
X115652285Y-8843380D02*
X115604666Y-8891000D01*
X115604666Y-8891000D02*
X115509428Y-8938619D01*
X115509428Y-8938619D02*
X115318952Y-8938619D01*
X115318952Y-8938619D02*
X115223714Y-8891000D01*
X115223714Y-8891000D02*
X115176095Y-8843380D01*
X115176095Y-8843380D02*
X115128476Y-8748142D01*
X115128476Y-8748142D02*
X115128476Y-7938619D01*
X114509428Y-8367190D02*
X114604666Y-8319571D01*
X114604666Y-8319571D02*
X114652285Y-8271952D01*
X114652285Y-8271952D02*
X114699904Y-8176714D01*
X114699904Y-8176714D02*
X114699904Y-8129095D01*
X114699904Y-8129095D02*
X114652285Y-8033857D01*
X114652285Y-8033857D02*
X114604666Y-7986238D01*
X114604666Y-7986238D02*
X114509428Y-7938619D01*
X114509428Y-7938619D02*
X114318952Y-7938619D01*
X114318952Y-7938619D02*
X114223714Y-7986238D01*
X114223714Y-7986238D02*
X114176095Y-8033857D01*
X114176095Y-8033857D02*
X114128476Y-8129095D01*
X114128476Y-8129095D02*
X114128476Y-8176714D01*
X114128476Y-8176714D02*
X114176095Y-8271952D01*
X114176095Y-8271952D02*
X114223714Y-8319571D01*
X114223714Y-8319571D02*
X114318952Y-8367190D01*
X114318952Y-8367190D02*
X114509428Y-8367190D01*
X114509428Y-8367190D02*
X114604666Y-8414809D01*
X114604666Y-8414809D02*
X114652285Y-8462428D01*
X114652285Y-8462428D02*
X114699904Y-8557666D01*
X114699904Y-8557666D02*
X114699904Y-8748142D01*
X114699904Y-8748142D02*
X114652285Y-8843380D01*
X114652285Y-8843380D02*
X114604666Y-8891000D01*
X114604666Y-8891000D02*
X114509428Y-8938619D01*
X114509428Y-8938619D02*
X114318952Y-8938619D01*
X114318952Y-8938619D02*
X114223714Y-8891000D01*
X114223714Y-8891000D02*
X114176095Y-8843380D01*
X114176095Y-8843380D02*
X114128476Y-8748142D01*
X114128476Y-8748142D02*
X114128476Y-8557666D01*
X114128476Y-8557666D02*
X114176095Y-8462428D01*
X114176095Y-8462428D02*
X114223714Y-8414809D01*
X114223714Y-8414809D02*
X114318952Y-8367190D01*
%TO.C,D9*%
X100800619Y29742095D02*
X99800619Y29742095D01*
X99800619Y29742095D02*
X99800619Y29504000D01*
X99800619Y29504000D02*
X99848238Y29361143D01*
X99848238Y29361143D02*
X99943476Y29265905D01*
X99943476Y29265905D02*
X100038714Y29218286D01*
X100038714Y29218286D02*
X100229190Y29170667D01*
X100229190Y29170667D02*
X100372047Y29170667D01*
X100372047Y29170667D02*
X100562523Y29218286D01*
X100562523Y29218286D02*
X100657761Y29265905D01*
X100657761Y29265905D02*
X100753000Y29361143D01*
X100753000Y29361143D02*
X100800619Y29504000D01*
X100800619Y29504000D02*
X100800619Y29742095D01*
X100800619Y28694476D02*
X100800619Y28504000D01*
X100800619Y28504000D02*
X100753000Y28408762D01*
X100753000Y28408762D02*
X100705380Y28361143D01*
X100705380Y28361143D02*
X100562523Y28265905D01*
X100562523Y28265905D02*
X100372047Y28218286D01*
X100372047Y28218286D02*
X99991095Y28218286D01*
X99991095Y28218286D02*
X99895857Y28265905D01*
X99895857Y28265905D02*
X99848238Y28313524D01*
X99848238Y28313524D02*
X99800619Y28408762D01*
X99800619Y28408762D02*
X99800619Y28599238D01*
X99800619Y28599238D02*
X99848238Y28694476D01*
X99848238Y28694476D02*
X99895857Y28742095D01*
X99895857Y28742095D02*
X99991095Y28789714D01*
X99991095Y28789714D02*
X100229190Y28789714D01*
X100229190Y28789714D02*
X100324428Y28742095D01*
X100324428Y28742095D02*
X100372047Y28694476D01*
X100372047Y28694476D02*
X100419666Y28599238D01*
X100419666Y28599238D02*
X100419666Y28408762D01*
X100419666Y28408762D02*
X100372047Y28313524D01*
X100372047Y28313524D02*
X100324428Y28265905D01*
X100324428Y28265905D02*
X100229190Y28218286D01*
%TO.C,C12*%
X82180857Y-24173380D02*
X82228476Y-24221000D01*
X82228476Y-24221000D02*
X82371333Y-24268619D01*
X82371333Y-24268619D02*
X82466571Y-24268619D01*
X82466571Y-24268619D02*
X82609428Y-24221000D01*
X82609428Y-24221000D02*
X82704666Y-24125761D01*
X82704666Y-24125761D02*
X82752285Y-24030523D01*
X82752285Y-24030523D02*
X82799904Y-23840047D01*
X82799904Y-23840047D02*
X82799904Y-23697190D01*
X82799904Y-23697190D02*
X82752285Y-23506714D01*
X82752285Y-23506714D02*
X82704666Y-23411476D01*
X82704666Y-23411476D02*
X82609428Y-23316238D01*
X82609428Y-23316238D02*
X82466571Y-23268619D01*
X82466571Y-23268619D02*
X82371333Y-23268619D01*
X82371333Y-23268619D02*
X82228476Y-23316238D01*
X82228476Y-23316238D02*
X82180857Y-23363857D01*
X81228476Y-24268619D02*
X81799904Y-24268619D01*
X81514190Y-24268619D02*
X81514190Y-23268619D01*
X81514190Y-23268619D02*
X81609428Y-23411476D01*
X81609428Y-23411476D02*
X81704666Y-23506714D01*
X81704666Y-23506714D02*
X81799904Y-23554333D01*
X80847523Y-23363857D02*
X80799904Y-23316238D01*
X80799904Y-23316238D02*
X80704666Y-23268619D01*
X80704666Y-23268619D02*
X80466571Y-23268619D01*
X80466571Y-23268619D02*
X80371333Y-23316238D01*
X80371333Y-23316238D02*
X80323714Y-23363857D01*
X80323714Y-23363857D02*
X80276095Y-23459095D01*
X80276095Y-23459095D02*
X80276095Y-23554333D01*
X80276095Y-23554333D02*
X80323714Y-23697190D01*
X80323714Y-23697190D02*
X80895142Y-24268619D01*
X80895142Y-24268619D02*
X80276095Y-24268619D01*
D12*
%TO.C,D7*%
X118379560Y-10609850D02*
X116094560Y-10609850D01*
X118379560Y-9139850D02*
X118379560Y-10609850D01*
X116094560Y-9139850D02*
X118379560Y-9139850D01*
%TO.C,J3*%
X91503660Y40081200D02*
X98653660Y40081200D01*
X98653660Y40081200D02*
X98653660Y46731200D01*
X98653660Y46731200D02*
X91503660Y46731200D01*
X91503660Y46731200D02*
X91503660Y40081200D01*
X91859260Y40589200D02*
X91808460Y40589200D01*
X91808460Y40589200D02*
X91808460Y40538400D01*
X91808460Y40538400D02*
X91859260Y40538400D01*
X91859260Y40538400D02*
X91859260Y40589200D01*
%TO.C,C43*%
X98157420Y25656000D02*
X98438580Y25656000D01*
X98157420Y24636000D02*
X98438580Y24636000D01*
%TO.C,U11*%
X103886000Y34676000D02*
X101936000Y34676000D01*
X103886000Y34676000D02*
X105836000Y34676000D01*
X103886000Y24556000D02*
X100436000Y24556000D01*
X103886000Y24556000D02*
X105836000Y24556000D01*
%TO.C,R62*%
X96280500Y29955258D02*
X96280500Y29480742D01*
X95235500Y29955258D02*
X95235500Y29480742D01*
%TO.C,R17*%
X102969960Y37233892D02*
X102969960Y37708408D01*
X104014960Y37233892D02*
X104014960Y37708408D01*
%TO.C,Q5*%
X116562060Y249150D02*
X117212060Y249150D01*
X116562060Y249150D02*
X115912060Y249150D01*
X116562060Y3369150D02*
X118237060Y3369150D01*
X116562060Y3369150D02*
X115912060Y3369150D01*
%TO.C,C13*%
X75395500Y-26353500D02*
X75395500Y-25566000D01*
X75789250Y-25959750D02*
X75001750Y-25959750D01*
X71202437Y-25326000D02*
X72488000Y-25326000D01*
X71202437Y-25326000D02*
X70138000Y-24261563D01*
X75893563Y-25326000D02*
X74608000Y-25326000D01*
X75893563Y-25326000D02*
X76958000Y-24261563D01*
X70138000Y-24261563D02*
X70138000Y-18506000D01*
X76958000Y-24261563D02*
X76958000Y-18506000D01*
X70138000Y-18506000D02*
X72488000Y-18506000D01*
X76958000Y-18506000D02*
X74608000Y-18506000D01*
%TO.C,R24*%
X110637560Y-6018592D02*
X110637560Y-6493108D01*
X109592560Y-6018592D02*
X109592560Y-6493108D01*
%TO.C,C10*%
X78982580Y-20521000D02*
X78701420Y-20521000D01*
X78982580Y-19501000D02*
X78701420Y-19501000D01*
%TO.C,J1*%
X21892000Y11825150D02*
X36892000Y11825150D01*
X36892000Y11825150D02*
X36892000Y46825150D01*
X36892000Y46825150D02*
X21892000Y46825150D01*
X21892000Y46825150D02*
X21892000Y11825150D01*
%TO.C,D1*%
X84762000Y34528000D02*
X88772000Y34528000D01*
X84762000Y32528000D02*
X84762000Y34528000D01*
X84762000Y32528000D02*
X88772000Y32528000D01*
%TO.C,Q3*%
X114862560Y-3306850D02*
X115512560Y-3306850D01*
X114862560Y-3306850D02*
X114212560Y-3306850D01*
X114862560Y-186850D02*
X116537560Y-186850D01*
X114862560Y-186850D02*
X114212560Y-186850D01*
%TO.C,R61*%
X95235500Y25924742D02*
X95235500Y26399258D01*
X96280500Y25924742D02*
X96280500Y26399258D01*
%TO.C,C21*%
X72152000Y-12975080D02*
X72152000Y-12693920D01*
X73172000Y-12975080D02*
X73172000Y-12693920D01*
%TO.C,R21*%
X117134060Y-1984108D02*
X117134060Y-1509592D01*
X118179060Y-1984108D02*
X118179060Y-1509592D01*
%TO.C,U6*%
X66426000Y-21916000D02*
X66426000Y-22716000D01*
X66426000Y-21916000D02*
X66426000Y-21116000D01*
X69546000Y-21916000D02*
X69546000Y-23716000D01*
X69546000Y-21916000D02*
X69546000Y-21116000D01*
%TO.C,J2*%
X100003560Y39833150D02*
X108943560Y39833150D01*
X108943560Y39833150D02*
X108943560Y46633150D01*
X108943560Y46633150D02*
X100003560Y46633150D01*
X100003560Y46633150D02*
X100003560Y39833150D01*
%TO.C,C11*%
X78982580Y-22426000D02*
X78701420Y-22426000D01*
X78982580Y-21406000D02*
X78701420Y-21406000D01*
%TO.C,C45*%
X96772000Y31355420D02*
X96772000Y31636580D01*
X97792000Y31355420D02*
X97792000Y31636580D01*
%TO.C,R20*%
X69630742Y-15281500D02*
X70105258Y-15281500D01*
X69630742Y-16326500D02*
X70105258Y-16326500D01*
%TO.C,C19*%
X76803580Y-17318000D02*
X76522420Y-17318000D01*
X76803580Y-16298000D02*
X76522420Y-16298000D01*
%TO.C,R19*%
X76900258Y-15818500D02*
X76425742Y-15818500D01*
X76900258Y-14773500D02*
X76425742Y-14773500D01*
%TO.C,R16*%
X104747960Y37233892D02*
X104747960Y37708408D01*
X105792960Y37233892D02*
X105792960Y37708408D01*
%TO.C,D8*%
X99783000Y26189000D02*
X97498000Y26189000D01*
X99783000Y27659000D02*
X99783000Y26189000D01*
X97498000Y27659000D02*
X99783000Y27659000D01*
%TO.C,R22*%
X118912060Y-8334108D02*
X118912060Y-7859592D01*
X119957060Y-8334108D02*
X119957060Y-7859592D01*
%TO.C,R18*%
X78675500Y-16283258D02*
X78675500Y-15808742D01*
X79720500Y-16283258D02*
X79720500Y-15808742D01*
%TO.C,Q4*%
X68374000Y-12834500D02*
X68374000Y-13484500D01*
X68374000Y-12834500D02*
X68374000Y-12184500D01*
X71494000Y-12834500D02*
X71494000Y-14509500D01*
X71494000Y-12834500D02*
X71494000Y-12184500D01*
%TO.C,D6*%
X79893000Y-14252000D02*
X75883000Y-14252000D01*
X79893000Y-12252000D02*
X79893000Y-14252000D01*
X79893000Y-12252000D02*
X75883000Y-12252000D01*
%TO.C,C44*%
X98550000Y31355420D02*
X98550000Y31636580D01*
X99570000Y31355420D02*
X99570000Y31636580D01*
%TO.C,C9*%
X68067420Y-18542000D02*
X68348580Y-18542000D01*
X68067420Y-19562000D02*
X68348580Y-19562000D01*
%TO.C,U4*%
X93028700Y12108150D02*
X39688700Y12108150D01*
X39688700Y12108150D02*
X39688700Y34968150D01*
X39688700Y34968150D02*
X93028700Y34968150D01*
X93028700Y34968150D02*
X93028700Y12108150D01*
X42228700Y19753550D02*
X38952100Y19753550D01*
X38952100Y19753550D02*
X38952100Y27322750D01*
X38952100Y27322750D02*
X42228700Y27322750D01*
X42228700Y27322750D02*
X42228700Y19753550D01*
%TO.C,R23*%
X114195060Y2266408D02*
X114195060Y1791892D01*
X113150060Y2266408D02*
X113150060Y1791892D01*
%TO.C,C22*%
X111392312Y-3243850D02*
X110869808Y-3243850D01*
X111392312Y-1773850D02*
X110869808Y-1773850D01*
%TO.C,C20*%
X113091812Y-10863850D02*
X112569308Y-10863850D01*
X113091812Y-9393850D02*
X112569308Y-9393850D01*
%TO.C,BT1*%
X103811000Y-9326850D02*
X26811000Y-9326850D01*
X26811000Y-9326850D02*
X26811000Y10673150D01*
X26811000Y10673150D02*
X103811000Y10673150D01*
X103811000Y10673150D02*
X103811000Y-9326850D01*
%TO.C,U8*%
X114849060Y-3695850D02*
X112899060Y-3695850D01*
X114849060Y-3695850D02*
X116799060Y-3695850D01*
X114849060Y-8815850D02*
X111399060Y-8815850D01*
X114849060Y-8815850D02*
X116799060Y-8815850D01*
%TO.C,D9*%
X99783000Y28221000D02*
X97498000Y28221000D01*
X99783000Y29691000D02*
X99783000Y28221000D01*
X97498000Y29691000D02*
X99783000Y29691000D01*
%TO.C,C12*%
X78982580Y-24331000D02*
X78701420Y-24331000D01*
X78982580Y-23311000D02*
X78701420Y-23311000D01*
%TD*%
M02*
